<mxfile host="app.diagrams.net" agent="Mozilla/5.0 (Macintosh; Intel Mac OS X 10_15_7) AppleWebKit/537.36 (KHTML, like Gecko) Chrome/133.0.0.0 Safari/537.36" version="27.1.4" pages="9">
  <diagram name="Page-1" id="xCMRb9sAoWMeoVVG3h3Y">
    <mxGraphModel dx="660" dy="1027" grid="0" gridSize="10" guides="1" tooltips="1" connect="1" arrows="1" fold="1" page="1" pageScale="1" pageWidth="850" pageHeight="1100" math="0" shadow="0">
      <root>
        <mxCell id="0" />
        <mxCell id="1" parent="0" />
        <mxCell id="1mxDS5zGErEobY4jashd-22" value="" style="whiteSpace=wrap;html=1;aspect=fixed;fontStyle=1" parent="1" vertex="1">
          <mxGeometry x="193" y="100" width="420" height="420" as="geometry" />
        </mxCell>
        <mxCell id="1mxDS5zGErEobY4jashd-40" style="rounded=0;orthogonalLoop=1;jettySize=auto;html=1;exitX=1;exitY=0.3333333333333333;exitDx=0;exitDy=0;exitPerimeter=0;entryX=0;entryY=0.5;entryDx=0;entryDy=0;endArrow=none;startFill=0;fontStyle=1" parent="1" source="1mxDS5zGErEobY4jashd-21" target="1mxDS5zGErEobY4jashd-23" edge="1">
          <mxGeometry relative="1" as="geometry" />
        </mxCell>
        <mxCell id="1mxDS5zGErEobY4jashd-41" style="rounded=0;orthogonalLoop=1;jettySize=auto;html=1;exitX=1;exitY=0.3333333333333333;exitDx=0;exitDy=0;exitPerimeter=0;endArrow=none;startFill=0;fontStyle=1" parent="1" source="1mxDS5zGErEobY4jashd-21" target="1mxDS5zGErEobY4jashd-24" edge="1">
          <mxGeometry relative="1" as="geometry" />
        </mxCell>
        <mxCell id="1mxDS5zGErEobY4jashd-42" style="rounded=0;orthogonalLoop=1;jettySize=auto;html=1;exitX=1;exitY=0.3333333333333333;exitDx=0;exitDy=0;exitPerimeter=0;entryX=0;entryY=0.5;entryDx=0;entryDy=0;endArrow=none;startFill=0;fontStyle=1" parent="1" source="1mxDS5zGErEobY4jashd-21" target="1mxDS5zGErEobY4jashd-25" edge="1">
          <mxGeometry relative="1" as="geometry" />
        </mxCell>
        <mxCell id="1mxDS5zGErEobY4jashd-43" style="rounded=0;orthogonalLoop=1;jettySize=auto;html=1;exitX=1;exitY=0.3333333333333333;exitDx=0;exitDy=0;exitPerimeter=0;entryX=0;entryY=0.5;entryDx=0;entryDy=0;endArrow=none;startFill=0;fontStyle=1" parent="1" source="1mxDS5zGErEobY4jashd-21" target="1mxDS5zGErEobY4jashd-26" edge="1">
          <mxGeometry relative="1" as="geometry" />
        </mxCell>
        <mxCell id="1mxDS5zGErEobY4jashd-21" value="Bệnh nhân, Bác sĩ,&amp;nbsp;&lt;span style=&quot;background-color: transparent; color: light-dark(rgb(0, 0, 0), rgb(255, 255, 255));&quot;&gt;Y tá,&amp;nbsp;&lt;/span&gt;&lt;div&gt;&lt;span style=&quot;background-color: transparent; color: light-dark(rgb(0, 0, 0), rgb(255, 255, 255));&quot;&gt;Admin, Nhà thuốc, Trưởng khoa&lt;/span&gt;&lt;/div&gt;" style="shape=umlActor;verticalLabelPosition=bottom;verticalAlign=top;html=1;outlineConnect=0;fontStyle=1" parent="1" vertex="1">
          <mxGeometry x="93" y="250" width="50" height="100" as="geometry" />
        </mxCell>
        <mxCell id="1mxDS5zGErEobY4jashd-23" value="Đăng nhập" style="ellipse;whiteSpace=wrap;html=1;fontStyle=1" parent="1" vertex="1">
          <mxGeometry x="213" y="110" width="120" height="80" as="geometry" />
        </mxCell>
        <mxCell id="1mxDS5zGErEobY4jashd-24" value="Đăng xuất" style="ellipse;whiteSpace=wrap;html=1;fontStyle=1" parent="1" vertex="1">
          <mxGeometry x="213" y="200" width="120" height="80" as="geometry" />
        </mxCell>
        <mxCell id="1mxDS5zGErEobY4jashd-25" value="Quên mật khẩu" style="ellipse;whiteSpace=wrap;html=1;fontStyle=1" parent="1" vertex="1">
          <mxGeometry x="213" y="300" width="120" height="80" as="geometry" />
        </mxCell>
        <mxCell id="1mxDS5zGErEobY4jashd-26" value="Xem trang thông tin cá nhân" style="ellipse;whiteSpace=wrap;html=1;fontStyle=1" parent="1" vertex="1">
          <mxGeometry x="213" y="400" width="120" height="80" as="geometry" />
        </mxCell>
        <mxCell id="1mxDS5zGErEobY4jashd-32" style="edgeStyle=orthogonalEdgeStyle;rounded=0;orthogonalLoop=1;jettySize=auto;html=1;exitX=0;exitY=0.5;exitDx=0;exitDy=0;dashed=1;fontStyle=1" parent="1" source="1mxDS5zGErEobY4jashd-27" target="1mxDS5zGErEobY4jashd-23" edge="1">
          <mxGeometry relative="1" as="geometry" />
        </mxCell>
        <mxCell id="1mxDS5zGErEobY4jashd-33" value="&lt;span&gt;&amp;lt;&amp;lt;Extend&amp;gt;&amp;gt;&lt;/span&gt;" style="edgeLabel;html=1;align=center;verticalAlign=middle;resizable=0;points=[];fontStyle=1" parent="1mxDS5zGErEobY4jashd-32" vertex="1" connectable="0">
          <mxGeometry x="-0.05" y="3" relative="1" as="geometry">
            <mxPoint as="offset" />
          </mxGeometry>
        </mxCell>
        <mxCell id="1mxDS5zGErEobY4jashd-27" value="Đăng nhập với Google" style="ellipse;whiteSpace=wrap;html=1;fontStyle=1" parent="1" vertex="1">
          <mxGeometry x="483" y="110" width="120" height="80" as="geometry" />
        </mxCell>
        <mxCell id="1mxDS5zGErEobY4jashd-34" style="rounded=0;orthogonalLoop=1;jettySize=auto;html=1;entryX=1;entryY=0.5;entryDx=0;entryDy=0;dashed=1;fontStyle=1" parent="1" source="1mxDS5zGErEobY4jashd-28" target="1mxDS5zGErEobY4jashd-26" edge="1">
          <mxGeometry relative="1" as="geometry" />
        </mxCell>
        <mxCell id="1mxDS5zGErEobY4jashd-37" value="&lt;span&gt;&amp;lt;&amp;lt;Extend&amp;gt;&amp;gt;&lt;/span&gt;" style="edgeLabel;html=1;align=center;verticalAlign=middle;resizable=0;points=[];fontStyle=1" parent="1mxDS5zGErEobY4jashd-34" vertex="1" connectable="0">
          <mxGeometry x="-0.205" y="-4" relative="1" as="geometry">
            <mxPoint y="1" as="offset" />
          </mxGeometry>
        </mxCell>
        <mxCell id="1mxDS5zGErEobY4jashd-28" value="Đổi mật khẩu" style="ellipse;whiteSpace=wrap;html=1;fontStyle=1" parent="1" vertex="1">
          <mxGeometry x="443" y="230" width="120" height="80" as="geometry" />
        </mxCell>
        <mxCell id="1mxDS5zGErEobY4jashd-35" style="rounded=0;orthogonalLoop=1;jettySize=auto;html=1;dashed=1;fontStyle=1" parent="1" source="1mxDS5zGErEobY4jashd-29" target="1mxDS5zGErEobY4jashd-26" edge="1">
          <mxGeometry relative="1" as="geometry" />
        </mxCell>
        <mxCell id="1mxDS5zGErEobY4jashd-38" value="&lt;span&gt;&amp;lt;&amp;lt;Extend&amp;gt;&amp;gt;&lt;/span&gt;" style="edgeLabel;html=1;align=center;verticalAlign=middle;resizable=0;points=[];fontStyle=1" parent="1mxDS5zGErEobY4jashd-35" vertex="1" connectable="0">
          <mxGeometry x="-0.3465" y="1" relative="1" as="geometry">
            <mxPoint as="offset" />
          </mxGeometry>
        </mxCell>
        <mxCell id="1mxDS5zGErEobY4jashd-29" value="Chỉnh sửa thông tin cá nhân" style="ellipse;whiteSpace=wrap;html=1;fontStyle=1" parent="1" vertex="1">
          <mxGeometry x="468" y="340" width="120" height="80" as="geometry" />
        </mxCell>
        <mxCell id="1mxDS5zGErEobY4jashd-36" style="rounded=0;orthogonalLoop=1;jettySize=auto;html=1;entryX=1;entryY=0.5;entryDx=0;entryDy=0;dashed=1;fontStyle=1" parent="1" source="1mxDS5zGErEobY4jashd-30" target="1mxDS5zGErEobY4jashd-26" edge="1">
          <mxGeometry relative="1" as="geometry" />
        </mxCell>
        <mxCell id="1mxDS5zGErEobY4jashd-39" value="&lt;span&gt;&amp;lt;&amp;lt;Extend&amp;gt;&amp;gt;&lt;/span&gt;" style="edgeLabel;html=1;align=center;verticalAlign=middle;resizable=0;points=[];fontStyle=1" parent="1mxDS5zGErEobY4jashd-36" vertex="1" connectable="0">
          <mxGeometry x="-0.1078" y="1" relative="1" as="geometry">
            <mxPoint as="offset" />
          </mxGeometry>
        </mxCell>
        <mxCell id="1mxDS5zGErEobY4jashd-30" value="Chỉnh sửa ảnh đại diện" style="ellipse;whiteSpace=wrap;html=1;fontStyle=1" parent="1" vertex="1">
          <mxGeometry x="453" y="430" width="120" height="80" as="geometry" />
        </mxCell>
      </root>
    </mxGraphModel>
  </diagram>
  <diagram id="Nac8PjDFlDpDhO9k7eER" name="Page-2">
    <mxGraphModel dx="762" dy="1185" grid="0" gridSize="10" guides="1" tooltips="1" connect="1" arrows="1" fold="1" page="1" pageScale="1" pageWidth="850" pageHeight="1100" math="0" shadow="0">
      <root>
        <mxCell id="0" />
        <mxCell id="1" parent="0" />
        <mxCell id="fdVxrQkmPPT_PUDZNKmx-24" value="" style="rounded=0;whiteSpace=wrap;html=1;movable=1;resizable=1;rotatable=1;deletable=1;editable=1;locked=0;connectable=1;fontStyle=1" parent="1" vertex="1">
          <mxGeometry x="132" y="36" width="637" height="936" as="geometry" />
        </mxCell>
        <mxCell id="fdVxrQkmPPT_PUDZNKmx-6" value="Bệnh nhân" style="shape=umlActor;verticalLabelPosition=bottom;verticalAlign=top;html=1;outlineConnect=0;movable=1;resizable=1;rotatable=1;deletable=1;editable=1;locked=0;connectable=1;fontStyle=1" parent="1" vertex="1">
          <mxGeometry x="27" y="574" width="50" height="100" as="geometry" />
        </mxCell>
        <mxCell id="fdVxrQkmPPT_PUDZNKmx-71" style="rounded=0;orthogonalLoop=1;jettySize=auto;html=1;exitX=0;exitY=0.5;exitDx=0;exitDy=0;endArrow=none;startFill=0;fontStyle=1;movable=1;resizable=1;rotatable=1;deletable=1;editable=1;locked=0;connectable=1;" parent="1" source="fdVxrQkmPPT_PUDZNKmx-48" edge="1">
          <mxGeometry relative="1" as="geometry">
            <mxPoint x="51.84846635298288" y="582.5151700106533" as="targetPoint" />
          </mxGeometry>
        </mxCell>
        <mxCell id="fdVxrQkmPPT_PUDZNKmx-48" value="&lt;p data-start=&quot;171&quot; data-end=&quot;193&quot;&gt;Xem danh sách bác sĩ&lt;/p&gt;" style="ellipse;whiteSpace=wrap;html=1;movable=1;resizable=1;rotatable=1;deletable=1;editable=1;locked=0;connectable=1;fontStyle=1" parent="1" vertex="1">
          <mxGeometry x="149" y="52" width="196" height="47" as="geometry" />
        </mxCell>
        <mxCell id="fdVxrQkmPPT_PUDZNKmx-68" value="&lt;p data-start=&quot;171&quot; data-end=&quot;193&quot;&gt;Xem chi tiết bác sĩ&lt;/p&gt;" style="ellipse;whiteSpace=wrap;html=1;movable=1;resizable=1;rotatable=1;deletable=1;editable=1;locked=0;connectable=1;fontStyle=1" parent="1" vertex="1">
          <mxGeometry x="262" y="99" width="196" height="47" as="geometry" />
        </mxCell>
        <mxCell id="fdVxrQkmPPT_PUDZNKmx-69" value="&lt;p data-start=&quot;171&quot; data-end=&quot;193&quot;&gt;Xem lịch khám với bác sĩ&lt;/p&gt;" style="ellipse;whiteSpace=wrap;html=1;movable=1;resizable=1;rotatable=1;deletable=1;editable=1;locked=0;connectable=1;fontStyle=1" parent="1" vertex="1">
          <mxGeometry x="165" y="149" width="196" height="47" as="geometry" />
        </mxCell>
        <mxCell id="fdVxrQkmPPT_PUDZNKmx-70" style="rounded=0;orthogonalLoop=1;jettySize=auto;html=1;entryX=0.5;entryY=0;entryDx=0;entryDy=0;entryPerimeter=0;endArrow=none;startFill=0;fontStyle=1;movable=1;resizable=1;rotatable=1;deletable=1;editable=1;locked=0;connectable=1;" parent="1" source="fdVxrQkmPPT_PUDZNKmx-68" target="fdVxrQkmPPT_PUDZNKmx-6" edge="1">
          <mxGeometry relative="1" as="geometry" />
        </mxCell>
        <mxCell id="UlKudVx8KKycRDmDM7CQ-19" style="rounded=0;orthogonalLoop=1;jettySize=auto;html=1;exitX=0;exitY=0.5;exitDx=0;exitDy=0;endArrow=none;startFill=0;fontStyle=1;movable=1;resizable=1;rotatable=1;deletable=1;editable=1;locked=0;connectable=1;" parent="1" source="UlKudVx8KKycRDmDM7CQ-1" target="fdVxrQkmPPT_PUDZNKmx-6" edge="1">
          <mxGeometry relative="1" as="geometry" />
        </mxCell>
        <mxCell id="UlKudVx8KKycRDmDM7CQ-1" value="&lt;p data-start=&quot;288&quot; data-end=&quot;313&quot;&gt;Đặt lịch hẹn với bác sĩ&lt;/p&gt;" style="ellipse;whiteSpace=wrap;html=1;movable=1;resizable=1;rotatable=1;deletable=1;editable=1;locked=0;connectable=1;fontStyle=1" parent="1" vertex="1">
          <mxGeometry x="277" y="198" width="196" height="47" as="geometry" />
        </mxCell>
        <mxCell id="UlKudVx8KKycRDmDM7CQ-20" style="rounded=0;orthogonalLoop=1;jettySize=auto;html=1;endArrow=none;startFill=0;fontStyle=1;movable=1;resizable=1;rotatable=1;deletable=1;editable=1;locked=0;connectable=1;" parent="1" source="UlKudVx8KKycRDmDM7CQ-2" target="fdVxrQkmPPT_PUDZNKmx-6" edge="1">
          <mxGeometry relative="1" as="geometry" />
        </mxCell>
        <mxCell id="UlKudVx8KKycRDmDM7CQ-2" value="&lt;p data-start=&quot;171&quot; data-end=&quot;193&quot;&gt;Đặt lịch hẹn không chọn bác sĩ&lt;/p&gt;" style="ellipse;whiteSpace=wrap;html=1;movable=1;resizable=1;rotatable=1;deletable=1;editable=1;locked=0;connectable=1;fontStyle=1" parent="1" vertex="1">
          <mxGeometry x="165" y="248" width="196" height="47" as="geometry" />
        </mxCell>
        <mxCell id="UlKudVx8KKycRDmDM7CQ-21" style="rounded=0;orthogonalLoop=1;jettySize=auto;html=1;endArrow=none;startFill=0;fontStyle=1;movable=1;resizable=1;rotatable=1;deletable=1;editable=1;locked=0;connectable=1;" parent="1" source="UlKudVx8KKycRDmDM7CQ-3" target="fdVxrQkmPPT_PUDZNKmx-6" edge="1">
          <mxGeometry relative="1" as="geometry" />
        </mxCell>
        <mxCell id="UlKudVx8KKycRDmDM7CQ-3" value="&lt;p data-start=&quot;171&quot; data-end=&quot;193&quot;&gt;Nhận kết quả khám bệnh&lt;/p&gt;" style="ellipse;whiteSpace=wrap;html=1;movable=1;resizable=1;rotatable=1;deletable=1;editable=1;locked=0;connectable=1;fontStyle=1" parent="1" vertex="1">
          <mxGeometry x="273" y="291" width="196" height="47" as="geometry" />
        </mxCell>
        <mxCell id="UlKudVx8KKycRDmDM7CQ-22" style="rounded=0;orthogonalLoop=1;jettySize=auto;html=1;endArrow=none;startFill=0;fontStyle=1;movable=1;resizable=1;rotatable=1;deletable=1;editable=1;locked=0;connectable=1;" parent="1" source="UlKudVx8KKycRDmDM7CQ-4" target="fdVxrQkmPPT_PUDZNKmx-6" edge="1">
          <mxGeometry relative="1" as="geometry" />
        </mxCell>
        <mxCell id="UlKudVx8KKycRDmDM7CQ-4" value="&lt;p data-start=&quot;171&quot; data-end=&quot;193&quot;&gt;Xem chi tiết kết quả khám bệnh&lt;/p&gt;" style="ellipse;whiteSpace=wrap;html=1;movable=1;resizable=1;rotatable=1;deletable=1;editable=1;locked=0;connectable=1;fontStyle=1" parent="1" vertex="1">
          <mxGeometry x="176" y="341" width="196" height="47" as="geometry" />
        </mxCell>
        <mxCell id="UlKudVx8KKycRDmDM7CQ-5" value="&lt;p data-start=&quot;171&quot; data-end=&quot;193&quot;&gt;Xem danh sách đơn thuốc&lt;/p&gt;" style="ellipse;whiteSpace=wrap;html=1;movable=1;resizable=1;rotatable=1;deletable=1;editable=1;locked=0;connectable=1;fontStyle=1" parent="1" vertex="1">
          <mxGeometry x="288" y="390" width="196" height="47" as="geometry" />
        </mxCell>
        <mxCell id="UlKudVx8KKycRDmDM7CQ-6" value="&lt;p data-start=&quot;171&quot; data-end=&quot;193&quot;&gt;Xem chi tiết đơn thuốc&lt;/p&gt;" style="ellipse;whiteSpace=wrap;html=1;movable=1;resizable=1;rotatable=1;deletable=1;editable=1;locked=0;connectable=1;fontStyle=1" parent="1" vertex="1">
          <mxGeometry x="176" y="440" width="196" height="47" as="geometry" />
        </mxCell>
        <mxCell id="UlKudVx8KKycRDmDM7CQ-25" style="rounded=0;orthogonalLoop=1;jettySize=auto;html=1;endArrow=none;startFill=0;fontStyle=1;movable=1;resizable=1;rotatable=1;deletable=1;editable=1;locked=0;connectable=1;" parent="1" source="UlKudVx8KKycRDmDM7CQ-7" target="fdVxrQkmPPT_PUDZNKmx-6" edge="1">
          <mxGeometry relative="1" as="geometry" />
        </mxCell>
        <mxCell id="UlKudVx8KKycRDmDM7CQ-7" value="&lt;p data-start=&quot;171&quot; data-end=&quot;193&quot;&gt;Thanh toán&lt;/p&gt;" style="ellipse;whiteSpace=wrap;html=1;movable=1;resizable=1;rotatable=1;deletable=1;editable=1;locked=0;connectable=1;fontStyle=1" parent="1" vertex="1">
          <mxGeometry x="290" y="487" width="196" height="47" as="geometry" />
        </mxCell>
        <mxCell id="UlKudVx8KKycRDmDM7CQ-26" style="rounded=0;orthogonalLoop=1;jettySize=auto;html=1;endArrow=none;startFill=0;fontStyle=1;movable=1;resizable=1;rotatable=1;deletable=1;editable=1;locked=0;connectable=1;" parent="1" source="UlKudVx8KKycRDmDM7CQ-8" target="fdVxrQkmPPT_PUDZNKmx-6" edge="1">
          <mxGeometry relative="1" as="geometry" />
        </mxCell>
        <mxCell id="UlKudVx8KKycRDmDM7CQ-8" value="&lt;p data-start=&quot;171&quot; data-end=&quot;193&quot;&gt;Xem lịch sử đặt lịch&lt;/p&gt;" style="ellipse;whiteSpace=wrap;html=1;movable=1;resizable=1;rotatable=1;deletable=1;editable=1;locked=0;connectable=1;fontStyle=1" parent="1" vertex="1">
          <mxGeometry x="193" y="537" width="196" height="47" as="geometry" />
        </mxCell>
        <mxCell id="UlKudVx8KKycRDmDM7CQ-27" style="rounded=0;orthogonalLoop=1;jettySize=auto;html=1;endArrow=none;startFill=0;fontStyle=1;movable=1;resizable=1;rotatable=1;deletable=1;editable=1;locked=0;connectable=1;" parent="1" source="UlKudVx8KKycRDmDM7CQ-9" target="fdVxrQkmPPT_PUDZNKmx-6" edge="1">
          <mxGeometry relative="1" as="geometry" />
        </mxCell>
        <mxCell id="UlKudVx8KKycRDmDM7CQ-9" value="&lt;p data-end=&quot;193&quot; data-start=&quot;171&quot;&gt;Hủy cuộc hẹn trong trang lịch sử cá nhân&lt;/p&gt;" style="ellipse;whiteSpace=wrap;html=1;fontStyle=1;movable=1;resizable=1;rotatable=1;deletable=1;editable=1;locked=0;connectable=1;" parent="1" vertex="1">
          <mxGeometry x="305" y="586" width="237" height="47" as="geometry" />
        </mxCell>
        <mxCell id="UlKudVx8KKycRDmDM7CQ-28" style="rounded=0;orthogonalLoop=1;jettySize=auto;html=1;endArrow=none;startFill=0;fontStyle=1;movable=1;resizable=1;rotatable=1;deletable=1;editable=1;locked=0;connectable=1;" parent="1" source="UlKudVx8KKycRDmDM7CQ-10" target="fdVxrQkmPPT_PUDZNKmx-6" edge="1">
          <mxGeometry relative="1" as="geometry" />
        </mxCell>
        <mxCell id="UlKudVx8KKycRDmDM7CQ-10" value="&lt;p data-start=&quot;171&quot; data-end=&quot;193&quot;&gt;Thêm bác sĩ vào danh sách yêu thích&lt;/p&gt;" style="ellipse;whiteSpace=wrap;html=1;movable=1;resizable=1;rotatable=1;deletable=1;editable=1;locked=0;connectable=1;fontStyle=1" parent="1" vertex="1">
          <mxGeometry x="193" y="636" width="196" height="47" as="geometry" />
        </mxCell>
        <mxCell id="UlKudVx8KKycRDmDM7CQ-29" style="rounded=0;orthogonalLoop=1;jettySize=auto;html=1;endArrow=none;startFill=0;fontStyle=1;movable=1;resizable=1;rotatable=1;deletable=1;editable=1;locked=0;connectable=1;" parent="1" source="UlKudVx8KKycRDmDM7CQ-11" target="fdVxrQkmPPT_PUDZNKmx-6" edge="1">
          <mxGeometry relative="1" as="geometry" />
        </mxCell>
        <mxCell id="UlKudVx8KKycRDmDM7CQ-11" value="&lt;p data-start=&quot;171&quot; data-end=&quot;193&quot;&gt;Xóa bác sĩ khỏi danh sách yêu thích&lt;/p&gt;" style="ellipse;whiteSpace=wrap;html=1;movable=1;resizable=1;rotatable=1;deletable=1;editable=1;locked=0;connectable=1;fontStyle=1" parent="1" vertex="1">
          <mxGeometry x="293" y="683" width="196" height="47" as="geometry" />
        </mxCell>
        <mxCell id="UlKudVx8KKycRDmDM7CQ-30" style="rounded=0;orthogonalLoop=1;jettySize=auto;html=1;endArrow=none;startFill=0;fontStyle=1;movable=1;resizable=1;rotatable=1;deletable=1;editable=1;locked=0;connectable=1;" parent="1" source="UlKudVx8KKycRDmDM7CQ-12" target="fdVxrQkmPPT_PUDZNKmx-6" edge="1">
          <mxGeometry relative="1" as="geometry" />
        </mxCell>
        <mxCell id="UlKudVx8KKycRDmDM7CQ-12" value="&lt;p data-start=&quot;171&quot; data-end=&quot;193&quot;&gt;Trò chuyện với AI&lt;/p&gt;" style="ellipse;whiteSpace=wrap;html=1;movable=1;resizable=1;rotatable=1;deletable=1;editable=1;locked=0;connectable=1;fontStyle=1" parent="1" vertex="1">
          <mxGeometry x="196" y="733" width="196" height="47" as="geometry" />
        </mxCell>
        <mxCell id="UlKudVx8KKycRDmDM7CQ-31" style="rounded=0;orthogonalLoop=1;jettySize=auto;html=1;endArrow=none;startFill=0;fontStyle=1;movable=1;resizable=1;rotatable=1;deletable=1;editable=1;locked=0;connectable=1;" parent="1" source="UlKudVx8KKycRDmDM7CQ-13" target="fdVxrQkmPPT_PUDZNKmx-6" edge="1">
          <mxGeometry relative="1" as="geometry" />
        </mxCell>
        <mxCell id="UlKudVx8KKycRDmDM7CQ-13" value="&lt;p data-start=&quot;171&quot; data-end=&quot;193&quot;&gt;Gọi video với bác sĩ&lt;/p&gt;" style="ellipse;whiteSpace=wrap;html=1;movable=1;resizable=1;rotatable=1;deletable=1;editable=1;locked=0;connectable=1;fontStyle=1" parent="1" vertex="1">
          <mxGeometry x="308" y="782" width="196" height="47" as="geometry" />
        </mxCell>
        <mxCell id="UlKudVx8KKycRDmDM7CQ-14" value="&lt;p data-start=&quot;171&quot; data-end=&quot;193&quot;&gt;Xem danh sách blog&lt;/p&gt;" style="ellipse;whiteSpace=wrap;html=1;movable=1;resizable=1;rotatable=1;deletable=1;editable=1;locked=0;connectable=1;fontStyle=1" parent="1" vertex="1">
          <mxGeometry x="196" y="832" width="196" height="47" as="geometry" />
        </mxCell>
        <mxCell id="UlKudVx8KKycRDmDM7CQ-15" value="&lt;p data-start=&quot;171&quot; data-end=&quot;193&quot;&gt;Xem chi tiết blog&lt;/p&gt;" style="ellipse;whiteSpace=wrap;html=1;movable=1;resizable=1;rotatable=1;deletable=1;editable=1;locked=0;connectable=1;fontStyle=1" parent="1" vertex="1">
          <mxGeometry x="315" y="879" width="196" height="47" as="geometry" />
        </mxCell>
        <mxCell id="UlKudVx8KKycRDmDM7CQ-16" value="&lt;p data-start=&quot;171&quot; data-end=&quot;193&quot;&gt;Xem lịch sử giao dịch&lt;/p&gt;" style="ellipse;whiteSpace=wrap;html=1;movable=1;resizable=1;rotatable=1;deletable=1;editable=1;locked=0;connectable=1;fontStyle=1" parent="1" vertex="1">
          <mxGeometry x="206" y="922" width="196" height="47" as="geometry" />
        </mxCell>
        <mxCell id="UlKudVx8KKycRDmDM7CQ-18" style="rounded=0;orthogonalLoop=1;jettySize=auto;html=1;exitX=0;exitY=0.5;exitDx=0;exitDy=0;entryX=0.5;entryY=0;entryDx=0;entryDy=0;entryPerimeter=0;endArrow=none;startFill=0;fontStyle=1;movable=1;resizable=1;rotatable=1;deletable=1;editable=1;locked=0;connectable=1;" parent="1" source="fdVxrQkmPPT_PUDZNKmx-69" target="fdVxrQkmPPT_PUDZNKmx-6" edge="1">
          <mxGeometry relative="1" as="geometry" />
        </mxCell>
        <mxCell id="UlKudVx8KKycRDmDM7CQ-23" style="rounded=0;orthogonalLoop=1;jettySize=auto;html=1;entryX=0.5;entryY=0;entryDx=0;entryDy=0;entryPerimeter=0;endArrow=none;startFill=0;fontStyle=1;movable=1;resizable=1;rotatable=1;deletable=1;editable=1;locked=0;connectable=1;" parent="1" source="UlKudVx8KKycRDmDM7CQ-5" target="fdVxrQkmPPT_PUDZNKmx-6" edge="1">
          <mxGeometry relative="1" as="geometry" />
        </mxCell>
        <mxCell id="UlKudVx8KKycRDmDM7CQ-24" style="rounded=0;orthogonalLoop=1;jettySize=auto;html=1;endArrow=none;startFill=0;fontStyle=1;movable=1;resizable=1;rotatable=1;deletable=1;editable=1;locked=0;connectable=1;" parent="1" source="UlKudVx8KKycRDmDM7CQ-6" target="fdVxrQkmPPT_PUDZNKmx-6" edge="1">
          <mxGeometry relative="1" as="geometry" />
        </mxCell>
        <mxCell id="UlKudVx8KKycRDmDM7CQ-32" style="rounded=0;orthogonalLoop=1;jettySize=auto;html=1;entryX=0.5;entryY=0.5;entryDx=0;entryDy=0;entryPerimeter=0;endArrow=none;startFill=0;fontStyle=1;movable=1;resizable=1;rotatable=1;deletable=1;editable=1;locked=0;connectable=1;" parent="1" source="UlKudVx8KKycRDmDM7CQ-14" target="fdVxrQkmPPT_PUDZNKmx-6" edge="1">
          <mxGeometry relative="1" as="geometry" />
        </mxCell>
        <mxCell id="UlKudVx8KKycRDmDM7CQ-33" style="rounded=0;orthogonalLoop=1;jettySize=auto;html=1;entryX=0.5;entryY=0.5;entryDx=0;entryDy=0;entryPerimeter=0;endArrow=none;startFill=0;fontStyle=1;movable=1;resizable=1;rotatable=1;deletable=1;editable=1;locked=0;connectable=1;" parent="1" source="UlKudVx8KKycRDmDM7CQ-15" target="fdVxrQkmPPT_PUDZNKmx-6" edge="1">
          <mxGeometry relative="1" as="geometry" />
        </mxCell>
        <mxCell id="UlKudVx8KKycRDmDM7CQ-34" style="rounded=0;orthogonalLoop=1;jettySize=auto;html=1;entryX=0.5;entryY=0.5;entryDx=0;entryDy=0;entryPerimeter=0;endArrow=none;startFill=0;fontStyle=1;movable=1;resizable=1;rotatable=1;deletable=1;editable=1;locked=0;connectable=1;" parent="1" source="UlKudVx8KKycRDmDM7CQ-16" target="fdVxrQkmPPT_PUDZNKmx-6" edge="1">
          <mxGeometry relative="1" as="geometry" />
        </mxCell>
        <mxCell id="UlKudVx8KKycRDmDM7CQ-36" style="rounded=0;orthogonalLoop=1;jettySize=auto;html=1;entryX=1;entryY=0.5;entryDx=0;entryDy=0;dashed=1;fontStyle=1;movable=1;resizable=1;rotatable=1;deletable=1;editable=1;locked=0;connectable=1;" parent="1" source="UlKudVx8KKycRDmDM7CQ-35" target="fdVxrQkmPPT_PUDZNKmx-48" edge="1">
          <mxGeometry relative="1" as="geometry" />
        </mxCell>
        <mxCell id="UlKudVx8KKycRDmDM7CQ-49" value="&lt;span&gt;&amp;lt;&amp;lt;extend&amp;gt;&amp;gt;&lt;/span&gt;" style="edgeLabel;html=1;align=center;verticalAlign=middle;resizable=1;points=[];fontStyle=1;movable=1;rotatable=1;deletable=1;editable=1;locked=0;connectable=1;" parent="UlKudVx8KKycRDmDM7CQ-36" vertex="1" connectable="0">
          <mxGeometry x="0.077" y="-2" relative="1" as="geometry">
            <mxPoint as="offset" />
          </mxGeometry>
        </mxCell>
        <mxCell id="UlKudVx8KKycRDmDM7CQ-35" value="&lt;p data-end=&quot;193&quot; data-start=&quot;171&quot;&gt;Tìm kiếm bác sĩ&lt;/p&gt;" style="ellipse;whiteSpace=wrap;html=1;fontStyle=1;movable=1;resizable=1;rotatable=1;deletable=1;editable=1;locked=0;connectable=1;" parent="1" vertex="1">
          <mxGeometry x="524" y="52" width="196" height="47" as="geometry" />
        </mxCell>
        <mxCell id="UlKudVx8KKycRDmDM7CQ-38" style="rounded=0;orthogonalLoop=1;jettySize=auto;html=1;entryX=1;entryY=0.5;entryDx=0;entryDy=0;dashed=1;fontStyle=1;movable=1;resizable=1;rotatable=1;deletable=1;editable=1;locked=0;connectable=1;" parent="1" source="UlKudVx8KKycRDmDM7CQ-37" target="UlKudVx8KKycRDmDM7CQ-1" edge="1">
          <mxGeometry relative="1" as="geometry" />
        </mxCell>
        <mxCell id="UlKudVx8KKycRDmDM7CQ-50" value="&lt;span&gt;&amp;lt;&amp;lt;extend&amp;gt;&amp;gt;&lt;/span&gt;" style="edgeLabel;html=1;align=center;verticalAlign=middle;resizable=1;points=[];fontStyle=1;movable=1;rotatable=1;deletable=1;editable=1;locked=0;connectable=1;" parent="UlKudVx8KKycRDmDM7CQ-38" vertex="1" connectable="0">
          <mxGeometry x="0.0602" relative="1" as="geometry">
            <mxPoint as="offset" />
          </mxGeometry>
        </mxCell>
        <mxCell id="UlKudVx8KKycRDmDM7CQ-37" value="&lt;p data-end=&quot;193&quot; data-start=&quot;171&quot;&gt;Chọn bác sĩ để đặt lich&lt;/p&gt;" style="ellipse;whiteSpace=wrap;html=1;fontStyle=1;movable=1;resizable=1;rotatable=1;deletable=1;editable=1;locked=0;connectable=1;" parent="1" vertex="1">
          <mxGeometry x="554" y="203" width="196" height="47" as="geometry" />
        </mxCell>
        <mxCell id="UlKudVx8KKycRDmDM7CQ-40" style="rounded=0;orthogonalLoop=1;jettySize=auto;html=1;entryX=1;entryY=0.5;entryDx=0;entryDy=0;movable=1;resizable=1;rotatable=1;deletable=1;editable=1;locked=0;connectable=1;dashed=1;fontStyle=1" parent="1" source="UlKudVx8KKycRDmDM7CQ-39" target="UlKudVx8KKycRDmDM7CQ-8" edge="1">
          <mxGeometry relative="1" as="geometry" />
        </mxCell>
        <mxCell id="UlKudVx8KKycRDmDM7CQ-51" value="&lt;span&gt;&amp;lt;&amp;lt;extend&amp;gt;&amp;gt;&lt;/span&gt;" style="edgeLabel;html=1;align=center;verticalAlign=middle;resizable=1;points=[];fontStyle=1;movable=1;rotatable=1;deletable=1;editable=1;locked=0;connectable=1;" parent="UlKudVx8KKycRDmDM7CQ-40" vertex="1" connectable="0">
          <mxGeometry x="0.1883" y="7" relative="1" as="geometry">
            <mxPoint as="offset" />
          </mxGeometry>
        </mxCell>
        <mxCell id="UlKudVx8KKycRDmDM7CQ-39" value="&lt;p data-end=&quot;193&quot; data-start=&quot;171&quot;&gt;Xuất file CSV/PDF&lt;/p&gt;" style="ellipse;whiteSpace=wrap;html=1;fontStyle=1;movable=1;resizable=1;rotatable=1;deletable=1;editable=1;locked=0;connectable=1;" parent="1" vertex="1">
          <mxGeometry x="511" y="537" width="196" height="47" as="geometry" />
        </mxCell>
        <mxCell id="UlKudVx8KKycRDmDM7CQ-42" style="rounded=0;orthogonalLoop=1;jettySize=auto;html=1;dashed=1;fontStyle=1;movable=1;resizable=1;rotatable=1;deletable=1;editable=1;locked=0;connectable=1;" parent="1" source="UlKudVx8KKycRDmDM7CQ-41" target="UlKudVx8KKycRDmDM7CQ-11" edge="1">
          <mxGeometry relative="1" as="geometry" />
        </mxCell>
        <mxCell id="UlKudVx8KKycRDmDM7CQ-52" value="&lt;span&gt;&amp;lt;&amp;lt;extend&amp;gt;&amp;gt;&lt;/span&gt;" style="edgeLabel;html=1;align=center;verticalAlign=middle;resizable=1;points=[];fontStyle=1;movable=1;rotatable=1;deletable=1;editable=1;locked=0;connectable=1;" parent="UlKudVx8KKycRDmDM7CQ-42" vertex="1" connectable="0">
          <mxGeometry x="0.1571" y="-7" relative="1" as="geometry">
            <mxPoint as="offset" />
          </mxGeometry>
        </mxCell>
        <mxCell id="UlKudVx8KKycRDmDM7CQ-41" value="&lt;p data-end=&quot;193&quot; data-start=&quot;171&quot;&gt;Nhận đề xuất bác sĩ&lt;/p&gt;" style="ellipse;whiteSpace=wrap;html=1;fontStyle=1;movable=1;resizable=1;rotatable=1;deletable=1;editable=1;locked=0;connectable=1;" parent="1" vertex="1">
          <mxGeometry x="573" y="630" width="196" height="47" as="geometry" />
        </mxCell>
        <mxCell id="UlKudVx8KKycRDmDM7CQ-44" style="rounded=0;orthogonalLoop=1;jettySize=auto;html=1;entryX=1;entryY=0.5;entryDx=0;entryDy=0;dashed=1;fontStyle=1;movable=1;resizable=1;rotatable=1;deletable=1;editable=1;locked=0;connectable=1;" parent="1" source="UlKudVx8KKycRDmDM7CQ-43" target="UlKudVx8KKycRDmDM7CQ-12" edge="1">
          <mxGeometry relative="1" as="geometry" />
        </mxCell>
        <mxCell id="UlKudVx8KKycRDmDM7CQ-53" value="&lt;span&gt;&amp;lt;&amp;lt;extend&amp;gt;&amp;gt;&lt;/span&gt;" style="edgeLabel;html=1;align=center;verticalAlign=middle;resizable=1;points=[];fontStyle=1;movable=1;rotatable=1;deletable=1;editable=1;locked=0;connectable=1;" parent="UlKudVx8KKycRDmDM7CQ-44" vertex="1" connectable="0">
          <mxGeometry x="-0.0622" y="-3" relative="1" as="geometry">
            <mxPoint x="1" as="offset" />
          </mxGeometry>
        </mxCell>
        <mxCell id="UlKudVx8KKycRDmDM7CQ-43" value="&lt;p data-end=&quot;193&quot; data-start=&quot;171&quot;&gt;Đặt lịch hẹn với AI&lt;/p&gt;" style="ellipse;whiteSpace=wrap;html=1;fontStyle=1;movable=1;resizable=1;rotatable=1;deletable=1;editable=1;locked=0;connectable=1;" parent="1" vertex="1">
          <mxGeometry x="561" y="759" width="196" height="47" as="geometry" />
        </mxCell>
        <mxCell id="UlKudVx8KKycRDmDM7CQ-47" style="rounded=0;orthogonalLoop=1;jettySize=auto;html=1;entryX=1;entryY=0.5;entryDx=0;entryDy=0;dashed=1;fontStyle=1;movable=1;resizable=1;rotatable=1;deletable=1;editable=1;locked=0;connectable=1;" parent="1" source="UlKudVx8KKycRDmDM7CQ-45" target="UlKudVx8KKycRDmDM7CQ-14" edge="1">
          <mxGeometry relative="1" as="geometry" />
        </mxCell>
        <mxCell id="UlKudVx8KKycRDmDM7CQ-54" value="&lt;span&gt;&amp;lt;&amp;lt;extend&amp;gt;&amp;gt;&lt;/span&gt;" style="edgeLabel;html=1;align=center;verticalAlign=middle;resizable=1;points=[];fontStyle=1;movable=1;rotatable=1;deletable=1;editable=1;locked=0;connectable=1;" parent="UlKudVx8KKycRDmDM7CQ-47" vertex="1" connectable="0">
          <mxGeometry x="-0.1371" y="1" relative="1" as="geometry">
            <mxPoint as="offset" />
          </mxGeometry>
        </mxCell>
        <mxCell id="UlKudVx8KKycRDmDM7CQ-45" value="&lt;p data-end=&quot;193&quot; data-start=&quot;171&quot;&gt;Xem, tạo, sửa, xóa bình luận trong blog&lt;/p&gt;" style="ellipse;whiteSpace=wrap;html=1;fontStyle=1;movable=1;resizable=1;rotatable=1;deletable=1;editable=1;locked=0;connectable=1;" parent="1" vertex="1">
          <mxGeometry x="556" y="819" width="208" height="54" as="geometry" />
        </mxCell>
        <mxCell id="UlKudVx8KKycRDmDM7CQ-48" style="rounded=0;orthogonalLoop=1;jettySize=auto;html=1;entryX=1;entryY=0.5;entryDx=0;entryDy=0;dashed=1;fontStyle=1;movable=1;resizable=1;rotatable=1;deletable=1;editable=1;locked=0;connectable=1;" parent="1" source="UlKudVx8KKycRDmDM7CQ-46" target="UlKudVx8KKycRDmDM7CQ-15" edge="1">
          <mxGeometry relative="1" as="geometry" />
        </mxCell>
        <mxCell id="UlKudVx8KKycRDmDM7CQ-55" value="&lt;span&gt;&amp;lt;&amp;lt;extend&amp;gt;&amp;gt;&lt;/span&gt;" style="edgeLabel;html=1;align=center;verticalAlign=middle;resizable=1;points=[];fontStyle=1;movable=1;rotatable=1;deletable=1;editable=1;locked=0;connectable=1;" parent="UlKudVx8KKycRDmDM7CQ-48" vertex="1" connectable="0">
          <mxGeometry x="0.2206" y="1" relative="1" as="geometry">
            <mxPoint x="-1" as="offset" />
          </mxGeometry>
        </mxCell>
        <mxCell id="UlKudVx8KKycRDmDM7CQ-46" value="&lt;p data-end=&quot;193&quot; data-start=&quot;171&quot;&gt;Phản hồi blog&lt;/p&gt;" style="ellipse;whiteSpace=wrap;html=1;fontStyle=1;movable=1;resizable=1;rotatable=1;deletable=1;editable=1;locked=0;connectable=1;" parent="1" vertex="1">
          <mxGeometry x="634" y="917" width="126" height="47" as="geometry" />
        </mxCell>
      </root>
    </mxGraphModel>
  </diagram>
  <diagram id="7ZHsU6KUGW4Znf9SpR1p" name="Trang-3">
    <mxGraphModel dx="550" dy="856" grid="1" gridSize="10" guides="1" tooltips="1" connect="1" arrows="1" fold="1" page="1" pageScale="1" pageWidth="827" pageHeight="1169" math="0" shadow="0">
      <root>
        <mxCell id="0" />
        <mxCell id="1" parent="0" />
        <mxCell id="N03ml5TTeFz0d6Iu5NFf-2" value="Khách" style="shape=umlActor;verticalLabelPosition=bottom;verticalAlign=top;html=1;outlineConnect=0;fontStyle=1" vertex="1" parent="1">
          <mxGeometry x="60" y="600" width="30" height="60" as="geometry" />
        </mxCell>
        <mxCell id="n45DQXwnGV06nNqm9p7--1" value="" style="rounded=0;whiteSpace=wrap;html=1;fontStyle=1" vertex="1" parent="1">
          <mxGeometry x="140" y="506" width="380" height="364" as="geometry" />
        </mxCell>
        <mxCell id="n45DQXwnGV06nNqm9p7--7" value="Đăng ký" style="ellipse;whiteSpace=wrap;html=1;fontStyle=1" vertex="1" parent="1">
          <mxGeometry x="160" y="520" width="120" height="40" as="geometry" />
        </mxCell>
        <mxCell id="n45DQXwnGV06nNqm9p7--9" value="Xem danh sách bác sĩ" style="ellipse;whiteSpace=wrap;html=1;fontStyle=1" vertex="1" parent="1">
          <mxGeometry x="160" y="570" width="140" height="40" as="geometry" />
        </mxCell>
        <mxCell id="n45DQXwnGV06nNqm9p7--10" value="Xem chi tiết thông tin bác sĩ" style="ellipse;whiteSpace=wrap;html=1;fontStyle=1" vertex="1" parent="1">
          <mxGeometry x="169" y="614" width="110" height="48" as="geometry" />
        </mxCell>
        <mxCell id="n45DQXwnGV06nNqm9p7--11" value="Xem danh sách bài viết" style="ellipse;whiteSpace=wrap;html=1;fontStyle=1" vertex="1" parent="1">
          <mxGeometry x="160" y="660" width="130" height="48" as="geometry" />
        </mxCell>
        <mxCell id="n45DQXwnGV06nNqm9p7--12" value="Xem chi tiết bài viết" style="ellipse;whiteSpace=wrap;html=1;fontStyle=1" vertex="1" parent="1">
          <mxGeometry x="160" y="720" width="120" height="40" as="geometry" />
        </mxCell>
        <mxCell id="n45DQXwnGV06nNqm9p7--13" value="Nhắn tin với chatbot" style="ellipse;whiteSpace=wrap;html=1;fontStyle=1" vertex="1" parent="1">
          <mxGeometry x="160" y="770" width="120" height="38" as="geometry" />
        </mxCell>
        <mxCell id="n45DQXwnGV06nNqm9p7--14" value="Xem bình luận trong bài viết" style="ellipse;whiteSpace=wrap;html=1;fontStyle=1" vertex="1" parent="1">
          <mxGeometry x="160" y="818" width="100" height="40" as="geometry" />
        </mxCell>
        <mxCell id="yxl2Bkn5hidfLwera7R2-1" style="rounded=0;orthogonalLoop=1;jettySize=auto;html=1;entryX=1;entryY=0.5;entryDx=0;entryDy=0;dashed=1;" edge="1" parent="1" source="n45DQXwnGV06nNqm9p7--15" target="n45DQXwnGV06nNqm9p7--9">
          <mxGeometry relative="1" as="geometry" />
        </mxCell>
        <mxCell id="yxl2Bkn5hidfLwera7R2-2" value="&lt;b&gt;&amp;lt;&amp;lt;Extend&amp;gt;&amp;gt;&lt;/b&gt;" style="edgeLabel;html=1;align=center;verticalAlign=middle;resizable=0;points=[];" vertex="1" connectable="0" parent="yxl2Bkn5hidfLwera7R2-1">
          <mxGeometry x="0.3661" y="2" relative="1" as="geometry">
            <mxPoint x="19" y="-1" as="offset" />
          </mxGeometry>
        </mxCell>
        <mxCell id="n45DQXwnGV06nNqm9p7--15" value="Tìm kiếm bác sĩ" style="ellipse;whiteSpace=wrap;html=1;fontStyle=1" vertex="1" parent="1">
          <mxGeometry x="390" y="530" width="120" height="40" as="geometry" />
        </mxCell>
        <mxCell id="n45DQXwnGV06nNqm9p7--24" style="rounded=0;orthogonalLoop=1;jettySize=auto;html=1;entryX=1;entryY=0.5;entryDx=0;entryDy=0;dashed=1;fontStyle=1" edge="1" parent="1" source="n45DQXwnGV06nNqm9p7--16" target="n45DQXwnGV06nNqm9p7--13">
          <mxGeometry relative="1" as="geometry" />
        </mxCell>
        <mxCell id="n45DQXwnGV06nNqm9p7--25" value="&lt;span&gt;&amp;lt;&amp;lt;Extend&amp;gt;&amp;gt;&lt;/span&gt;" style="edgeLabel;html=1;align=center;verticalAlign=middle;resizable=0;points=[];fontStyle=1" vertex="1" connectable="0" parent="n45DQXwnGV06nNqm9p7--24">
          <mxGeometry x="0.2562" relative="1" as="geometry">
            <mxPoint as="offset" />
          </mxGeometry>
        </mxCell>
        <mxCell id="n45DQXwnGV06nNqm9p7--16" value="Nhận gợi ý bác sĩ khám bệnh" style="ellipse;whiteSpace=wrap;html=1;fontStyle=1" vertex="1" parent="1">
          <mxGeometry x="340" y="720" width="120" height="40" as="geometry" />
        </mxCell>
        <mxCell id="n45DQXwnGV06nNqm9p7--17" style="rounded=0;orthogonalLoop=1;jettySize=auto;html=1;entryX=1;entryY=0.3333333333333333;entryDx=0;entryDy=0;entryPerimeter=0;endArrow=none;startFill=0;fontStyle=1" edge="1" parent="1" source="n45DQXwnGV06nNqm9p7--7" target="N03ml5TTeFz0d6Iu5NFf-2">
          <mxGeometry relative="1" as="geometry" />
        </mxCell>
        <mxCell id="n45DQXwnGV06nNqm9p7--18" style="rounded=0;orthogonalLoop=1;jettySize=auto;html=1;entryX=1;entryY=0.3333333333333333;entryDx=0;entryDy=0;entryPerimeter=0;endArrow=none;startFill=0;fontStyle=1" edge="1" parent="1" source="n45DQXwnGV06nNqm9p7--9" target="N03ml5TTeFz0d6Iu5NFf-2">
          <mxGeometry relative="1" as="geometry" />
        </mxCell>
        <mxCell id="n45DQXwnGV06nNqm9p7--19" style="rounded=0;orthogonalLoop=1;jettySize=auto;html=1;entryX=1;entryY=0.3333333333333333;entryDx=0;entryDy=0;entryPerimeter=0;endArrow=none;startFill=0;fontStyle=1" edge="1" parent="1" source="n45DQXwnGV06nNqm9p7--10" target="N03ml5TTeFz0d6Iu5NFf-2">
          <mxGeometry relative="1" as="geometry" />
        </mxCell>
        <mxCell id="n45DQXwnGV06nNqm9p7--20" style="rounded=0;orthogonalLoop=1;jettySize=auto;html=1;entryX=1;entryY=0.3333333333333333;entryDx=0;entryDy=0;entryPerimeter=0;endArrow=none;startFill=0;fontStyle=1" edge="1" parent="1" source="n45DQXwnGV06nNqm9p7--11" target="N03ml5TTeFz0d6Iu5NFf-2">
          <mxGeometry relative="1" as="geometry" />
        </mxCell>
        <mxCell id="n45DQXwnGV06nNqm9p7--21" style="rounded=0;orthogonalLoop=1;jettySize=auto;html=1;entryX=1;entryY=0.3333333333333333;entryDx=0;entryDy=0;entryPerimeter=0;endArrow=none;startFill=0;fontStyle=1" edge="1" parent="1" source="n45DQXwnGV06nNqm9p7--12" target="N03ml5TTeFz0d6Iu5NFf-2">
          <mxGeometry relative="1" as="geometry" />
        </mxCell>
        <mxCell id="n45DQXwnGV06nNqm9p7--22" style="rounded=0;orthogonalLoop=1;jettySize=auto;html=1;entryX=1;entryY=0.3333333333333333;entryDx=0;entryDy=0;entryPerimeter=0;endArrow=none;startFill=0;fontStyle=1" edge="1" parent="1" source="n45DQXwnGV06nNqm9p7--13" target="N03ml5TTeFz0d6Iu5NFf-2">
          <mxGeometry relative="1" as="geometry" />
        </mxCell>
        <mxCell id="n45DQXwnGV06nNqm9p7--23" style="rounded=0;orthogonalLoop=1;jettySize=auto;html=1;entryX=1;entryY=0.3333333333333333;entryDx=0;entryDy=0;entryPerimeter=0;endArrow=none;startFill=0;fontStyle=1" edge="1" parent="1" source="n45DQXwnGV06nNqm9p7--14" target="N03ml5TTeFz0d6Iu5NFf-2">
          <mxGeometry relative="1" as="geometry" />
        </mxCell>
      </root>
    </mxGraphModel>
  </diagram>
  <diagram id="1xGHdC8rLxu1B2hBuz8L" name="Trang-4">
    <mxGraphModel dx="707" dy="1100" grid="1" gridSize="10" guides="1" tooltips="1" connect="1" arrows="1" fold="1" page="1" pageScale="1" pageWidth="827" pageHeight="1169" math="0" shadow="0">
      <root>
        <mxCell id="0" />
        <mxCell id="1" parent="0" />
        <mxCell id="H2wxFgp2LoxmMYIwX-ZL-62" value="" style="rounded=0;whiteSpace=wrap;html=1;movable=1;resizable=1;rotatable=1;deletable=1;editable=1;locked=0;connectable=1;fontStyle=1" vertex="1" parent="1">
          <mxGeometry x="147" y="50" width="637" height="936" as="geometry" />
        </mxCell>
        <mxCell id="H2wxFgp2LoxmMYIwX-ZL-63" value="Bác sĩ" style="shape=umlActor;verticalLabelPosition=bottom;verticalAlign=top;html=1;outlineConnect=0;movable=1;resizable=1;rotatable=1;deletable=1;editable=1;locked=0;connectable=1;fontStyle=1" vertex="1" parent="1">
          <mxGeometry x="42" y="588" width="50" height="100" as="geometry" />
        </mxCell>
        <mxCell id="H2wxFgp2LoxmMYIwX-ZL-64" style="rounded=0;orthogonalLoop=1;jettySize=auto;html=1;exitX=0;exitY=0.5;exitDx=0;exitDy=0;endArrow=none;startFill=0;movable=1;resizable=1;rotatable=1;deletable=1;editable=1;locked=0;connectable=1;entryX=1;entryY=0.3333333333333333;entryDx=0;entryDy=0;entryPerimeter=0;fontStyle=1" edge="1" parent="1" source="H2wxFgp2LoxmMYIwX-ZL-65" target="H2wxFgp2LoxmMYIwX-ZL-63">
          <mxGeometry relative="1" as="geometry">
            <mxPoint x="66.84846635298288" y="596.5151700106533" as="targetPoint" />
          </mxGeometry>
        </mxCell>
        <mxCell id="H2wxFgp2LoxmMYIwX-ZL-65" value="&lt;p data-start=&quot;171&quot; data-end=&quot;193&quot;&gt;Sắp xếp lịch trình trống&lt;/p&gt;" style="ellipse;whiteSpace=wrap;html=1;movable=1;resizable=1;rotatable=1;deletable=1;editable=1;locked=0;connectable=1;fontStyle=1" vertex="1" parent="1">
          <mxGeometry x="164" y="66" width="196" height="47" as="geometry" />
        </mxCell>
        <mxCell id="H2wxFgp2LoxmMYIwX-ZL-66" value="&lt;p data-start=&quot;171&quot; data-end=&quot;193&quot;&gt;Xem danh sách lịch hẹn của bệnh nhân&lt;/p&gt;" style="ellipse;whiteSpace=wrap;html=1;movable=1;resizable=1;rotatable=1;deletable=1;editable=1;locked=0;connectable=1;fontStyle=1" vertex="1" parent="1">
          <mxGeometry x="292" y="113" width="203" height="60" as="geometry" />
        </mxCell>
        <mxCell id="H2wxFgp2LoxmMYIwX-ZL-68" style="rounded=0;orthogonalLoop=1;jettySize=auto;html=1;entryX=1;entryY=0.3333333333333333;entryDx=0;entryDy=0;entryPerimeter=0;endArrow=none;startFill=0;movable=1;resizable=1;rotatable=1;deletable=1;editable=1;locked=0;connectable=1;fontStyle=1" edge="1" parent="1" source="H2wxFgp2LoxmMYIwX-ZL-66" target="H2wxFgp2LoxmMYIwX-ZL-63">
          <mxGeometry relative="1" as="geometry" />
        </mxCell>
        <mxCell id="H2wxFgp2LoxmMYIwX-ZL-67" value="&lt;p data-start=&quot;171&quot; data-end=&quot;193&quot;&gt;Xem chi tiết lịch hẹn của bệnh nhân&lt;/p&gt;" style="ellipse;whiteSpace=wrap;html=1;movable=1;resizable=1;rotatable=1;deletable=1;editable=1;locked=0;connectable=1;fontStyle=1" vertex="1" parent="1">
          <mxGeometry x="180" y="163" width="196" height="47" as="geometry" />
        </mxCell>
        <mxCell id="H2wxFgp2LoxmMYIwX-ZL-69" style="rounded=0;orthogonalLoop=1;jettySize=auto;html=1;exitX=0;exitY=0.5;exitDx=0;exitDy=0;endArrow=none;startFill=0;movable=1;resizable=1;rotatable=1;deletable=1;editable=1;locked=0;connectable=1;fontStyle=1" edge="1" parent="1" source="H2wxFgp2LoxmMYIwX-ZL-70" target="H2wxFgp2LoxmMYIwX-ZL-63">
          <mxGeometry relative="1" as="geometry" />
        </mxCell>
        <mxCell id="H2wxFgp2LoxmMYIwX-ZL-70" value="&lt;p data-start=&quot;288&quot; data-end=&quot;313&quot;&gt;Từ chối lịch hẹn của bệnh nhân&lt;/p&gt;" style="ellipse;whiteSpace=wrap;html=1;movable=1;resizable=1;rotatable=1;deletable=1;editable=1;locked=0;connectable=1;fontStyle=1" vertex="1" parent="1">
          <mxGeometry x="292" y="212" width="196" height="47" as="geometry" />
        </mxCell>
        <mxCell id="H2wxFgp2LoxmMYIwX-ZL-71" style="rounded=0;orthogonalLoop=1;jettySize=auto;html=1;endArrow=none;startFill=0;movable=1;resizable=1;rotatable=1;deletable=1;editable=1;locked=0;connectable=1;fontStyle=1" edge="1" parent="1" source="H2wxFgp2LoxmMYIwX-ZL-72" target="H2wxFgp2LoxmMYIwX-ZL-63">
          <mxGeometry relative="1" as="geometry" />
        </mxCell>
        <mxCell id="H2wxFgp2LoxmMYIwX-ZL-72" value="&lt;p data-start=&quot;171&quot; data-end=&quot;193&quot;&gt;Tạo, đọc, cập nhật hồ sơ kết quả y tế&lt;/p&gt;" style="ellipse;whiteSpace=wrap;html=1;movable=1;resizable=1;rotatable=1;deletable=1;editable=1;locked=0;connectable=1;fontStyle=1" vertex="1" parent="1">
          <mxGeometry x="164" y="254" width="196" height="59" as="geometry" />
        </mxCell>
        <mxCell id="H2wxFgp2LoxmMYIwX-ZL-73" style="rounded=0;orthogonalLoop=1;jettySize=auto;html=1;endArrow=none;startFill=0;movable=1;resizable=1;rotatable=1;deletable=1;editable=1;locked=0;connectable=1;fontStyle=1" edge="1" parent="1" source="H2wxFgp2LoxmMYIwX-ZL-74" target="H2wxFgp2LoxmMYIwX-ZL-63">
          <mxGeometry relative="1" as="geometry" />
        </mxCell>
        <mxCell id="H2wxFgp2LoxmMYIwX-ZL-74" value="&lt;p data-start=&quot;171&quot; data-end=&quot;193&quot;&gt;Chuyển kết quả y tế cho bác sĩ khác&lt;/p&gt;" style="ellipse;whiteSpace=wrap;html=1;movable=1;resizable=1;rotatable=1;deletable=1;editable=1;locked=0;connectable=1;fontStyle=1" vertex="1" parent="1">
          <mxGeometry x="288" y="305" width="196" height="47" as="geometry" />
        </mxCell>
        <mxCell id="H2wxFgp2LoxmMYIwX-ZL-75" style="rounded=0;orthogonalLoop=1;jettySize=auto;html=1;endArrow=none;startFill=0;movable=1;resizable=1;rotatable=1;deletable=1;editable=1;locked=0;connectable=1;fontStyle=1" edge="1" parent="1" source="H2wxFgp2LoxmMYIwX-ZL-76" target="H2wxFgp2LoxmMYIwX-ZL-63">
          <mxGeometry relative="1" as="geometry" />
        </mxCell>
        <mxCell id="H2wxFgp2LoxmMYIwX-ZL-76" value="&lt;p data-start=&quot;171&quot; data-end=&quot;193&quot;&gt;Nhận kết quả y tế từ bác sĩ khác&lt;/p&gt;" style="ellipse;whiteSpace=wrap;html=1;movable=1;resizable=1;rotatable=1;deletable=1;editable=1;locked=0;connectable=1;fontStyle=1" vertex="1" parent="1">
          <mxGeometry x="191" y="355" width="196" height="47" as="geometry" />
        </mxCell>
        <mxCell id="H2wxFgp2LoxmMYIwX-ZL-97" style="rounded=0;orthogonalLoop=1;jettySize=auto;html=1;endArrow=none;startFill=0;movable=1;resizable=1;rotatable=1;deletable=1;editable=1;locked=0;connectable=1;fontStyle=1" edge="1" parent="1" source="H2wxFgp2LoxmMYIwX-ZL-77" target="H2wxFgp2LoxmMYIwX-ZL-63">
          <mxGeometry relative="1" as="geometry" />
        </mxCell>
        <mxCell id="H2wxFgp2LoxmMYIwX-ZL-77" value="&lt;p data-start=&quot;171&quot; data-end=&quot;193&quot;&gt;Cập nhật hồ sơ kết quả y tế đã được giao&lt;/p&gt;" style="ellipse;whiteSpace=wrap;html=1;movable=1;resizable=1;rotatable=1;deletable=1;editable=1;locked=0;connectable=1;fontStyle=1" vertex="1" parent="1">
          <mxGeometry x="303" y="400" width="197" height="51" as="geometry" />
        </mxCell>
        <mxCell id="H2wxFgp2LoxmMYIwX-ZL-78" value="&lt;p data-start=&quot;171&quot; data-end=&quot;193&quot;&gt;Tạo, đọc, cập nhật hồ sơ kê đơn thuốc&lt;/p&gt;" style="ellipse;whiteSpace=wrap;html=1;movable=1;resizable=1;rotatable=1;deletable=1;editable=1;locked=0;connectable=1;fontStyle=1" vertex="1" parent="1">
          <mxGeometry x="191" y="454" width="196" height="47" as="geometry" />
        </mxCell>
        <mxCell id="H2wxFgp2LoxmMYIwX-ZL-79" style="rounded=0;orthogonalLoop=1;jettySize=auto;html=1;endArrow=none;startFill=0;movable=1;resizable=1;rotatable=1;deletable=1;editable=1;locked=0;connectable=1;fontStyle=1" edge="1" parent="1" source="H2wxFgp2LoxmMYIwX-ZL-80" target="H2wxFgp2LoxmMYIwX-ZL-63">
          <mxGeometry relative="1" as="geometry" />
        </mxCell>
        <mxCell id="H2wxFgp2LoxmMYIwX-ZL-80" value="&lt;p data-start=&quot;171&quot; data-end=&quot;193&quot;&gt;Chuyển hồ sơ kê đơn thuốc&lt;/p&gt;" style="ellipse;whiteSpace=wrap;html=1;movable=1;resizable=1;rotatable=1;deletable=1;editable=1;locked=0;connectable=1;fontStyle=1" vertex="1" parent="1">
          <mxGeometry x="305" y="501" width="196" height="47" as="geometry" />
        </mxCell>
        <mxCell id="H2wxFgp2LoxmMYIwX-ZL-81" style="rounded=0;orthogonalLoop=1;jettySize=auto;html=1;endArrow=none;startFill=0;movable=1;resizable=1;rotatable=1;deletable=1;editable=1;locked=0;connectable=1;fontStyle=1" edge="1" parent="1" source="H2wxFgp2LoxmMYIwX-ZL-82" target="H2wxFgp2LoxmMYIwX-ZL-63">
          <mxGeometry relative="1" as="geometry" />
        </mxCell>
        <mxCell id="H2wxFgp2LoxmMYIwX-ZL-82" value="&lt;p data-start=&quot;171&quot; data-end=&quot;193&quot;&gt;Nhận hồ sơ kê đơn thuốc&lt;/p&gt;" style="ellipse;whiteSpace=wrap;html=1;movable=1;resizable=1;rotatable=1;deletable=1;editable=1;locked=0;connectable=1;fontStyle=1" vertex="1" parent="1">
          <mxGeometry x="208" y="551" width="196" height="47" as="geometry" />
        </mxCell>
        <mxCell id="H2wxFgp2LoxmMYIwX-ZL-83" style="rounded=0;orthogonalLoop=1;jettySize=auto;html=1;endArrow=none;startFill=0;movable=1;resizable=1;rotatable=1;deletable=1;editable=1;locked=0;connectable=1;fontStyle=1" edge="1" parent="1" source="H2wxFgp2LoxmMYIwX-ZL-84" target="H2wxFgp2LoxmMYIwX-ZL-63">
          <mxGeometry relative="1" as="geometry" />
        </mxCell>
        <mxCell id="H2wxFgp2LoxmMYIwX-ZL-84" value="&lt;p data-start=&quot;171&quot; data-end=&quot;193&quot;&gt;Cập nhật hồ sơ kê đơn thuốc đã được giao&lt;/p&gt;" style="ellipse;whiteSpace=wrap;html=1;movable=1;resizable=1;rotatable=1;deletable=1;editable=1;locked=0;connectable=1;fontStyle=1" vertex="1" parent="1">
          <mxGeometry x="320" y="600" width="237" height="47" as="geometry" />
        </mxCell>
        <mxCell id="H2wxFgp2LoxmMYIwX-ZL-85" style="rounded=0;orthogonalLoop=1;jettySize=auto;html=1;endArrow=none;startFill=0;movable=1;resizable=1;rotatable=1;deletable=1;editable=1;locked=0;connectable=1;fontStyle=1" edge="1" parent="1" source="H2wxFgp2LoxmMYIwX-ZL-86" target="H2wxFgp2LoxmMYIwX-ZL-63">
          <mxGeometry relative="1" as="geometry" />
        </mxCell>
        <mxCell id="H2wxFgp2LoxmMYIwX-ZL-86" value="&lt;p data-start=&quot;171&quot; data-end=&quot;193&quot;&gt;Xem lịch sử y tế&lt;/p&gt;" style="ellipse;whiteSpace=wrap;html=1;movable=1;resizable=1;rotatable=1;deletable=1;editable=1;locked=0;connectable=1;fontStyle=1" vertex="1" parent="1">
          <mxGeometry x="208" y="650" width="196" height="47" as="geometry" />
        </mxCell>
        <mxCell id="H2wxFgp2LoxmMYIwX-ZL-87" style="rounded=0;orthogonalLoop=1;jettySize=auto;html=1;endArrow=none;startFill=0;movable=1;resizable=1;rotatable=1;deletable=1;editable=1;locked=0;connectable=1;fontStyle=1" edge="1" parent="1" source="H2wxFgp2LoxmMYIwX-ZL-88" target="H2wxFgp2LoxmMYIwX-ZL-63">
          <mxGeometry relative="1" as="geometry" />
        </mxCell>
        <mxCell id="H2wxFgp2LoxmMYIwX-ZL-88" value="&lt;p data-start=&quot;171&quot; data-end=&quot;193&quot;&gt;Tạo, cập nhật, xóa bài blog&lt;/p&gt;" style="ellipse;whiteSpace=wrap;html=1;movable=1;resizable=1;rotatable=1;deletable=1;editable=1;locked=0;connectable=1;fontStyle=1" vertex="1" parent="1">
          <mxGeometry x="308" y="697" width="196" height="47" as="geometry" />
        </mxCell>
        <mxCell id="H2wxFgp2LoxmMYIwX-ZL-89" style="rounded=0;orthogonalLoop=1;jettySize=auto;html=1;endArrow=none;startFill=0;movable=1;resizable=1;rotatable=1;deletable=1;editable=1;locked=0;connectable=1;fontStyle=1" edge="1" parent="1" source="H2wxFgp2LoxmMYIwX-ZL-90" target="H2wxFgp2LoxmMYIwX-ZL-63">
          <mxGeometry relative="1" as="geometry" />
        </mxCell>
        <mxCell id="H2wxFgp2LoxmMYIwX-ZL-90" value="&lt;p data-start=&quot;171&quot; data-end=&quot;193&quot;&gt;Xem danh sách blog&lt;/p&gt;" style="ellipse;whiteSpace=wrap;html=1;movable=1;resizable=1;rotatable=1;deletable=1;editable=1;locked=0;connectable=1;fontStyle=1" vertex="1" parent="1">
          <mxGeometry x="211" y="747" width="196" height="47" as="geometry" />
        </mxCell>
        <mxCell id="H2wxFgp2LoxmMYIwX-ZL-91" style="rounded=0;orthogonalLoop=1;jettySize=auto;html=1;endArrow=none;startFill=0;movable=1;resizable=1;rotatable=1;deletable=1;editable=1;locked=0;connectable=1;fontStyle=1" edge="1" parent="1" source="H2wxFgp2LoxmMYIwX-ZL-92" target="H2wxFgp2LoxmMYIwX-ZL-63">
          <mxGeometry relative="1" as="geometry" />
        </mxCell>
        <mxCell id="H2wxFgp2LoxmMYIwX-ZL-92" value="&lt;p data-start=&quot;171&quot; data-end=&quot;193&quot;&gt;Xem chi tiết blog&lt;/p&gt;" style="ellipse;whiteSpace=wrap;html=1;movable=1;resizable=1;rotatable=1;deletable=1;editable=1;locked=0;connectable=1;fontStyle=1" vertex="1" parent="1">
          <mxGeometry x="323" y="796" width="196" height="47" as="geometry" />
        </mxCell>
        <mxCell id="H2wxFgp2LoxmMYIwX-ZL-93" value="&lt;p data-start=&quot;171&quot; data-end=&quot;193&quot;&gt;Gọi video với bệnh nhân&lt;/p&gt;" style="ellipse;whiteSpace=wrap;html=1;movable=1;resizable=1;rotatable=1;deletable=1;editable=1;locked=0;connectable=1;fontStyle=1" vertex="1" parent="1">
          <mxGeometry x="211" y="846" width="196" height="47" as="geometry" />
        </mxCell>
        <mxCell id="H2wxFgp2LoxmMYIwX-ZL-94" value="&lt;p data-start=&quot;171&quot; data-end=&quot;193&quot;&gt;Xem lịch sử khám bệnh của bác sĩ&lt;/p&gt;" style="ellipse;whiteSpace=wrap;html=1;movable=1;resizable=1;rotatable=1;deletable=1;editable=1;locked=0;connectable=1;fontStyle=1" vertex="1" parent="1">
          <mxGeometry x="218" y="910" width="196" height="47" as="geometry" />
        </mxCell>
        <mxCell id="H2wxFgp2LoxmMYIwX-ZL-96" style="rounded=0;orthogonalLoop=1;jettySize=auto;html=1;exitX=0;exitY=0.5;exitDx=0;exitDy=0;endArrow=none;startFill=0;movable=1;resizable=1;rotatable=1;deletable=1;editable=1;locked=0;connectable=1;fontStyle=1" edge="1" parent="1" source="H2wxFgp2LoxmMYIwX-ZL-67">
          <mxGeometry relative="1" as="geometry">
            <mxPoint x="100" y="600" as="targetPoint" />
          </mxGeometry>
        </mxCell>
        <mxCell id="H2wxFgp2LoxmMYIwX-ZL-98" style="rounded=0;orthogonalLoop=1;jettySize=auto;html=1;endArrow=none;startFill=0;movable=1;resizable=1;rotatable=1;deletable=1;editable=1;locked=0;connectable=1;fontStyle=1" edge="1" parent="1" source="H2wxFgp2LoxmMYIwX-ZL-78" target="H2wxFgp2LoxmMYIwX-ZL-63">
          <mxGeometry relative="1" as="geometry" />
        </mxCell>
        <mxCell id="H2wxFgp2LoxmMYIwX-ZL-99" style="rounded=0;orthogonalLoop=1;jettySize=auto;html=1;entryX=0.5;entryY=0.5;entryDx=0;entryDy=0;entryPerimeter=0;endArrow=none;startFill=0;movable=1;resizable=1;rotatable=1;deletable=1;editable=1;locked=0;connectable=1;fontStyle=1" edge="1" parent="1" source="H2wxFgp2LoxmMYIwX-ZL-93" target="H2wxFgp2LoxmMYIwX-ZL-63">
          <mxGeometry relative="1" as="geometry" />
        </mxCell>
        <mxCell id="H2wxFgp2LoxmMYIwX-ZL-100" style="rounded=0;orthogonalLoop=1;jettySize=auto;html=1;endArrow=none;startFill=0;movable=1;resizable=1;rotatable=1;deletable=1;editable=1;locked=0;connectable=1;entryX=1;entryY=0.3333333333333333;entryDx=0;entryDy=0;entryPerimeter=0;fontStyle=1" edge="1" parent="1" source="H2wxFgp2LoxmMYIwX-ZL-94" target="H2wxFgp2LoxmMYIwX-ZL-124">
          <mxGeometry relative="1" as="geometry">
            <mxPoint x="120" y="880" as="targetPoint" />
          </mxGeometry>
        </mxCell>
        <mxCell id="H2wxFgp2LoxmMYIwX-ZL-114" style="rounded=0;orthogonalLoop=1;jettySize=auto;html=1;entryX=1;entryY=0;entryDx=0;entryDy=0;dashed=1;movable=1;resizable=1;rotatable=1;deletable=1;editable=1;locked=0;connectable=1;fontStyle=1" edge="1" parent="1" source="H2wxFgp2LoxmMYIwX-ZL-116" target="H2wxFgp2LoxmMYIwX-ZL-92">
          <mxGeometry relative="1" as="geometry" />
        </mxCell>
        <mxCell id="H2wxFgp2LoxmMYIwX-ZL-115" value="&lt;span&gt;&amp;lt;&amp;lt;extend&amp;gt;&amp;gt;&lt;/span&gt;" style="edgeLabel;html=1;align=center;verticalAlign=middle;resizable=1;points=[];movable=1;rotatable=1;deletable=1;editable=1;locked=0;connectable=1;fontStyle=1" vertex="1" connectable="0" parent="H2wxFgp2LoxmMYIwX-ZL-114">
          <mxGeometry x="-0.0622" y="-3" relative="1" as="geometry">
            <mxPoint x="1" as="offset" />
          </mxGeometry>
        </mxCell>
        <mxCell id="H2wxFgp2LoxmMYIwX-ZL-116" value="&lt;p data-start=&quot;171&quot; data-end=&quot;193&quot;&gt;Tạo xem sửa xoá bình luận trên blog&lt;/p&gt;" style="ellipse;whiteSpace=wrap;html=1;movable=1;resizable=1;rotatable=1;deletable=1;editable=1;locked=0;connectable=1;fontStyle=1" vertex="1" parent="1">
          <mxGeometry x="576" y="773" width="196" height="47" as="geometry" />
        </mxCell>
        <mxCell id="H2wxFgp2LoxmMYIwX-ZL-117" style="rounded=0;orthogonalLoop=1;jettySize=auto;html=1;entryX=1;entryY=0.5;entryDx=0;entryDy=0;dashed=1;movable=1;resizable=1;rotatable=1;deletable=1;editable=1;locked=0;connectable=1;fontStyle=1" edge="1" parent="1" source="H2wxFgp2LoxmMYIwX-ZL-119" target="H2wxFgp2LoxmMYIwX-ZL-92">
          <mxGeometry relative="1" as="geometry" />
        </mxCell>
        <mxCell id="H2wxFgp2LoxmMYIwX-ZL-118" value="&lt;span&gt;&amp;lt;&amp;lt;extend&amp;gt;&amp;gt;&lt;/span&gt;" style="edgeLabel;html=1;align=center;verticalAlign=middle;resizable=1;points=[];movable=1;rotatable=1;deletable=1;editable=1;locked=0;connectable=1;fontStyle=1" vertex="1" connectable="0" parent="H2wxFgp2LoxmMYIwX-ZL-117">
          <mxGeometry x="-0.1371" y="1" relative="1" as="geometry">
            <mxPoint as="offset" />
          </mxGeometry>
        </mxCell>
        <mxCell id="H2wxFgp2LoxmMYIwX-ZL-119" value="&lt;p data-start=&quot;171&quot; data-end=&quot;193&quot;&gt;Phản hồi blog&lt;/p&gt;" style="ellipse;whiteSpace=wrap;html=1;movable=1;resizable=1;rotatable=1;deletable=1;editable=1;locked=0;connectable=1;fontStyle=1" vertex="1" parent="1">
          <mxGeometry x="571" y="833" width="208" height="54" as="geometry" />
        </mxCell>
        <mxCell id="H2wxFgp2LoxmMYIwX-ZL-126" style="edgeStyle=orthogonalEdgeStyle;rounded=0;orthogonalLoop=1;jettySize=auto;html=1;endArrow=block;endFill=0;fontStyle=1" edge="1" parent="1" source="H2wxFgp2LoxmMYIwX-ZL-124">
          <mxGeometry relative="1" as="geometry">
            <mxPoint x="67" y="720" as="targetPoint" />
          </mxGeometry>
        </mxCell>
        <mxCell id="H2wxFgp2LoxmMYIwX-ZL-124" value="Trưởng khoa" style="shape=umlActor;verticalLabelPosition=bottom;verticalAlign=top;html=1;outlineConnect=0;movable=1;resizable=1;rotatable=1;deletable=1;editable=1;locked=0;connectable=1;fontStyle=1" vertex="1" parent="1">
          <mxGeometry x="42" y="833" width="50" height="100" as="geometry" />
        </mxCell>
      </root>
    </mxGraphModel>
  </diagram>
  <diagram id="egvR8SCYF6jV-sPQPS-r" name="Trang-5">
    <mxGraphModel dx="762" dy="1185" grid="1" gridSize="10" guides="1" tooltips="1" connect="1" arrows="1" fold="1" page="1" pageScale="1" pageWidth="827" pageHeight="1169" math="0" shadow="0">
      <root>
        <mxCell id="0" />
        <mxCell id="1" parent="0" />
        <mxCell id="sC-Zj0I-rXGtlUWIfkSa-1" value="" style="rounded=0;whiteSpace=wrap;html=1;movable=1;resizable=1;rotatable=1;deletable=1;editable=1;locked=0;connectable=1;fontStyle=1" vertex="1" parent="1">
          <mxGeometry x="165" y="50" width="435" height="570" as="geometry" />
        </mxCell>
        <mxCell id="sC-Zj0I-rXGtlUWIfkSa-2" value="Quản trị viên" style="shape=umlActor;verticalLabelPosition=bottom;verticalAlign=top;html=1;outlineConnect=0;movable=1;resizable=1;rotatable=1;deletable=1;editable=1;locked=0;connectable=1;fontStyle=1" vertex="1" parent="1">
          <mxGeometry x="40" y="302" width="50" height="100" as="geometry" />
        </mxCell>
        <mxCell id="sC-Zj0I-rXGtlUWIfkSa-3" style="rounded=0;orthogonalLoop=1;jettySize=auto;html=1;exitX=0;exitY=0.5;exitDx=0;exitDy=0;endArrow=none;startFill=0;fontStyle=1;movable=1;resizable=1;rotatable=1;deletable=1;editable=1;locked=0;connectable=1;entryX=1;entryY=0.3333333333333333;entryDx=0;entryDy=0;entryPerimeter=0;" edge="1" parent="1" source="sC-Zj0I-rXGtlUWIfkSa-4" target="sC-Zj0I-rXGtlUWIfkSa-2">
          <mxGeometry relative="1" as="geometry">
            <mxPoint x="84.84846635298288" y="596.5151700106533" as="targetPoint" />
          </mxGeometry>
        </mxCell>
        <mxCell id="sC-Zj0I-rXGtlUWIfkSa-4" value="&lt;p data-start=&quot;171&quot; data-end=&quot;193&quot;&gt;Xem doanh thu trên bảng điều khiển&lt;/p&gt;" style="ellipse;whiteSpace=wrap;html=1;movable=1;resizable=1;rotatable=1;deletable=1;editable=1;locked=0;connectable=1;fontStyle=1" vertex="1" parent="1">
          <mxGeometry x="182" y="66" width="196" height="47" as="geometry" />
        </mxCell>
        <mxCell id="sC-Zj0I-rXGtlUWIfkSa-5" value="&lt;p data-start=&quot;171&quot; data-end=&quot;193&quot;&gt;Xem thống kê tổng số cuộc hẹn trên bảng điều khiển&lt;/p&gt;" style="ellipse;whiteSpace=wrap;html=1;movable=1;resizable=1;rotatable=1;deletable=1;editable=1;locked=0;connectable=1;fontStyle=1" vertex="1" parent="1">
          <mxGeometry x="295" y="113" width="196" height="47" as="geometry" />
        </mxCell>
        <mxCell id="sC-Zj0I-rXGtlUWIfkSa-6" value="&lt;p data-start=&quot;171&quot; data-end=&quot;193&quot;&gt;Xem danh sách các cuộc hẹn của bệnh nhân trên bảng điều khiển&lt;/p&gt;" style="ellipse;whiteSpace=wrap;html=1;movable=1;resizable=1;rotatable=1;deletable=1;editable=1;locked=0;connectable=1;fontStyle=1" vertex="1" parent="1">
          <mxGeometry x="198" y="163" width="196" height="47" as="geometry" />
        </mxCell>
        <mxCell id="sC-Zj0I-rXGtlUWIfkSa-7" style="rounded=0;orthogonalLoop=1;jettySize=auto;html=1;entryX=1;entryY=0.3333333333333333;entryDx=0;entryDy=0;entryPerimeter=0;endArrow=none;startFill=0;fontStyle=1;movable=1;resizable=1;rotatable=1;deletable=1;editable=1;locked=0;connectable=1;" edge="1" parent="1" source="sC-Zj0I-rXGtlUWIfkSa-5" target="sC-Zj0I-rXGtlUWIfkSa-2">
          <mxGeometry relative="1" as="geometry" />
        </mxCell>
        <mxCell id="sC-Zj0I-rXGtlUWIfkSa-8" style="rounded=0;orthogonalLoop=1;jettySize=auto;html=1;exitX=0;exitY=0.5;exitDx=0;exitDy=0;endArrow=none;startFill=0;fontStyle=1;movable=1;resizable=1;rotatable=1;deletable=1;editable=1;locked=0;connectable=1;" edge="1" parent="1" source="sC-Zj0I-rXGtlUWIfkSa-9" target="sC-Zj0I-rXGtlUWIfkSa-2">
          <mxGeometry relative="1" as="geometry" />
        </mxCell>
        <mxCell id="sC-Zj0I-rXGtlUWIfkSa-9" value="&lt;p data-start=&quot;288&quot; data-end=&quot;313&quot;&gt;Xem thống kê bệnh nhân trên bảng điều khiển&lt;/p&gt;" style="ellipse;whiteSpace=wrap;html=1;movable=1;resizable=1;rotatable=1;deletable=1;editable=1;locked=0;connectable=1;fontStyle=1" vertex="1" parent="1">
          <mxGeometry x="310" y="212" width="196" height="47" as="geometry" />
        </mxCell>
        <mxCell id="sC-Zj0I-rXGtlUWIfkSa-10" style="rounded=0;orthogonalLoop=1;jettySize=auto;html=1;endArrow=none;startFill=0;fontStyle=1;movable=1;resizable=1;rotatable=1;deletable=1;editable=1;locked=0;connectable=1;" edge="1" parent="1" source="sC-Zj0I-rXGtlUWIfkSa-11" target="sC-Zj0I-rXGtlUWIfkSa-2">
          <mxGeometry relative="1" as="geometry" />
        </mxCell>
        <mxCell id="sC-Zj0I-rXGtlUWIfkSa-11" value="&lt;p data-start=&quot;171&quot; data-end=&quot;193&quot;&gt;Xem danh sách tài khoản bệnh nhân&lt;/p&gt;" style="ellipse;whiteSpace=wrap;html=1;movable=1;resizable=1;rotatable=1;deletable=1;editable=1;locked=0;connectable=1;fontStyle=1" vertex="1" parent="1">
          <mxGeometry x="198" y="262" width="196" height="47" as="geometry" />
        </mxCell>
        <mxCell id="sC-Zj0I-rXGtlUWIfkSa-12" style="rounded=0;orthogonalLoop=1;jettySize=auto;html=1;endArrow=none;startFill=0;fontStyle=1;movable=1;resizable=1;rotatable=1;deletable=1;editable=1;locked=0;connectable=1;" edge="1" parent="1" source="sC-Zj0I-rXGtlUWIfkSa-13" target="sC-Zj0I-rXGtlUWIfkSa-2">
          <mxGeometry relative="1" as="geometry" />
        </mxCell>
        <mxCell id="sC-Zj0I-rXGtlUWIfkSa-13" value="&lt;p data-start=&quot;171&quot; data-end=&quot;193&quot;&gt;Cấm/Hủy tài khoản bệnh nhân&lt;/p&gt;" style="ellipse;whiteSpace=wrap;html=1;movable=1;resizable=1;rotatable=1;deletable=1;editable=1;locked=0;connectable=1;fontStyle=1" vertex="1" parent="1">
          <mxGeometry x="306" y="305" width="196" height="47" as="geometry" />
        </mxCell>
        <mxCell id="sC-Zj0I-rXGtlUWIfkSa-36" style="rounded=0;orthogonalLoop=1;jettySize=auto;html=1;entryX=1;entryY=0.3333333333333333;entryDx=0;entryDy=0;entryPerimeter=0;endArrow=none;startFill=0;fontStyle=1;movable=1;resizable=1;rotatable=1;deletable=1;editable=1;locked=0;connectable=1;" edge="1" parent="1" source="sC-Zj0I-rXGtlUWIfkSa-16" target="sC-Zj0I-rXGtlUWIfkSa-2">
          <mxGeometry relative="1" as="geometry" />
        </mxCell>
        <mxCell id="sC-Zj0I-rXGtlUWIfkSa-14" style="rounded=0;orthogonalLoop=1;jettySize=auto;html=1;endArrow=none;startFill=0;fontStyle=1;movable=1;resizable=1;rotatable=1;deletable=1;editable=1;locked=0;connectable=1;" edge="1" parent="1" source="sC-Zj0I-rXGtlUWIfkSa-15" target="sC-Zj0I-rXGtlUWIfkSa-2">
          <mxGeometry relative="1" as="geometry" />
        </mxCell>
        <mxCell id="sC-Zj0I-rXGtlUWIfkSa-15" value="&lt;p data-start=&quot;171&quot; data-end=&quot;193&quot;&gt;&lt;span style=&quot;background-color: transparent; color: light-dark(rgb(0, 0, 0), rgb(255, 255, 255));&quot;&gt;Tạo xem sửa xoá&lt;/span&gt;&amp;nbsp;tài khoản bác sĩ&lt;/p&gt;" style="ellipse;whiteSpace=wrap;html=1;movable=1;resizable=1;rotatable=1;deletable=1;editable=1;locked=0;connectable=1;fontStyle=1" vertex="1" parent="1">
          <mxGeometry x="209" y="355" width="196" height="47" as="geometry" />
        </mxCell>
        <mxCell id="sC-Zj0I-rXGtlUWIfkSa-16" value="&lt;p data-start=&quot;171&quot; data-end=&quot;193&quot;&gt;&lt;span style=&quot;background-color: transparent; color: light-dark(rgb(0, 0, 0), rgb(255, 255, 255));&quot;&gt;Tạo xem sửa xoá&lt;/span&gt;&amp;nbsp;tài khoản y tá&lt;/p&gt;" style="ellipse;whiteSpace=wrap;html=1;movable=1;resizable=1;rotatable=1;deletable=1;editable=1;locked=0;connectable=1;fontStyle=1" vertex="1" parent="1">
          <mxGeometry x="321" y="404" width="196" height="47" as="geometry" />
        </mxCell>
        <mxCell id="sC-Zj0I-rXGtlUWIfkSa-18" style="rounded=0;orthogonalLoop=1;jettySize=auto;html=1;endArrow=none;startFill=0;fontStyle=1;movable=1;resizable=1;rotatable=1;deletable=1;editable=1;locked=0;connectable=1;" edge="1" parent="1" source="sC-Zj0I-rXGtlUWIfkSa-19" target="sC-Zj0I-rXGtlUWIfkSa-2">
          <mxGeometry relative="1" as="geometry" />
        </mxCell>
        <mxCell id="sC-Zj0I-rXGtlUWIfkSa-20" style="rounded=0;orthogonalLoop=1;jettySize=auto;html=1;endArrow=none;startFill=0;fontStyle=1;movable=1;resizable=1;rotatable=1;deletable=1;editable=1;locked=0;connectable=1;" edge="1" parent="1" source="sC-Zj0I-rXGtlUWIfkSa-21" target="sC-Zj0I-rXGtlUWIfkSa-2">
          <mxGeometry relative="1" as="geometry" />
        </mxCell>
        <mxCell id="sC-Zj0I-rXGtlUWIfkSa-17" value="&lt;p data-start=&quot;171&quot; data-end=&quot;193&quot;&gt;&lt;span style=&quot;background-color: transparent; color: light-dark(rgb(0, 0, 0), rgb(255, 255, 255));&quot;&gt;Tạo xem sửa xoá&lt;/span&gt;&amp;nbsp;tài khoản trưởng khoa&lt;/p&gt;" style="ellipse;whiteSpace=wrap;html=1;movable=1;resizable=1;rotatable=1;deletable=1;editable=1;locked=0;connectable=1;fontStyle=1" vertex="1" parent="1">
          <mxGeometry x="209" y="454" width="196" height="47" as="geometry" />
        </mxCell>
        <mxCell id="sC-Zj0I-rXGtlUWIfkSa-19" value="&lt;p data-start=&quot;171&quot; data-end=&quot;193&quot;&gt;&lt;span style=&quot;background-color: transparent; color: light-dark(rgb(0, 0, 0), rgb(255, 255, 255));&quot;&gt;Tạo xem sửa xoá&lt;/span&gt;&amp;nbsp;tài khoản nhà thuốc&lt;/p&gt;" style="ellipse;whiteSpace=wrap;html=1;movable=1;resizable=1;rotatable=1;deletable=1;editable=1;locked=0;connectable=1;fontStyle=1" vertex="1" parent="1">
          <mxGeometry x="323" y="500" width="167" height="48" as="geometry" />
        </mxCell>
        <mxCell id="sC-Zj0I-rXGtlUWIfkSa-21" value="&lt;p data-start=&quot;171&quot; data-end=&quot;193&quot;&gt;&lt;span style=&quot;background-color: transparent; color: light-dark(rgb(0, 0, 0), rgb(255, 255, 255));&quot;&gt;Tạo xem sửa xoá&lt;/span&gt;&amp;nbsp;dịch vụ&lt;/p&gt;" style="ellipse;whiteSpace=wrap;html=1;movable=1;resizable=1;rotatable=1;deletable=1;editable=1;locked=0;connectable=1;fontStyle=1" vertex="1" parent="1">
          <mxGeometry x="226" y="551" width="196" height="47" as="geometry" />
        </mxCell>
        <mxCell id="sC-Zj0I-rXGtlUWIfkSa-35" style="rounded=0;orthogonalLoop=1;jettySize=auto;html=1;exitX=0;exitY=0.5;exitDx=0;exitDy=0;entryX=1;entryY=0.3333333333333333;entryDx=0;entryDy=0;entryPerimeter=0;endArrow=none;startFill=0;fontStyle=1;movable=1;resizable=1;rotatable=1;deletable=1;editable=1;locked=0;connectable=1;" edge="1" parent="1" source="sC-Zj0I-rXGtlUWIfkSa-6" target="sC-Zj0I-rXGtlUWIfkSa-2">
          <mxGeometry relative="1" as="geometry" />
        </mxCell>
        <mxCell id="sC-Zj0I-rXGtlUWIfkSa-37" style="rounded=0;orthogonalLoop=1;jettySize=auto;html=1;endArrow=none;startFill=0;fontStyle=1;movable=1;resizable=1;rotatable=1;deletable=1;editable=1;locked=0;connectable=1;" edge="1" parent="1" source="sC-Zj0I-rXGtlUWIfkSa-17" target="sC-Zj0I-rXGtlUWIfkSa-2">
          <mxGeometry relative="1" as="geometry" />
        </mxCell>
      </root>
    </mxGraphModel>
  </diagram>
  <diagram id="tK-IdQH8w7HVYpKGEF5r" name="Trang-6">
    <mxGraphModel dx="619" dy="963" grid="1" gridSize="10" guides="1" tooltips="1" connect="1" arrows="1" fold="1" page="1" pageScale="1" pageWidth="827" pageHeight="1169" math="0" shadow="0">
      <root>
        <mxCell id="0" />
        <mxCell id="1" parent="0" />
        <mxCell id="GqVJLROYOQyDWFtDQ3A7-1" value="" style="rounded=0;whiteSpace=wrap;html=1;movable=1;resizable=1;rotatable=1;deletable=1;editable=1;locked=0;connectable=1;fontStyle=1" vertex="1" parent="1">
          <mxGeometry x="185" y="40" width="435" height="420" as="geometry" />
        </mxCell>
        <mxCell id="GqVJLROYOQyDWFtDQ3A7-2" value="Y tá" style="shape=umlActor;verticalLabelPosition=bottom;verticalAlign=top;html=1;outlineConnect=0;movable=1;resizable=1;rotatable=1;deletable=1;editable=1;locked=0;connectable=1;fontStyle=1" vertex="1" parent="1">
          <mxGeometry x="60" y="292" width="50" height="100" as="geometry" />
        </mxCell>
        <mxCell id="GqVJLROYOQyDWFtDQ3A7-3" style="rounded=0;orthogonalLoop=1;jettySize=auto;html=1;exitX=0;exitY=0.5;exitDx=0;exitDy=0;endArrow=none;startFill=0;fontStyle=1;movable=1;resizable=1;rotatable=1;deletable=1;editable=1;locked=0;connectable=1;entryX=1;entryY=0.3333333333333333;entryDx=0;entryDy=0;entryPerimeter=0;" edge="1" parent="1" source="GqVJLROYOQyDWFtDQ3A7-4" target="GqVJLROYOQyDWFtDQ3A7-2">
          <mxGeometry relative="1" as="geometry">
            <mxPoint x="104.84846635298288" y="586.5151700106533" as="targetPoint" />
          </mxGeometry>
        </mxCell>
        <mxCell id="GqVJLROYOQyDWFtDQ3A7-4" value="&lt;p data-start=&quot;171&quot; data-end=&quot;193&quot;&gt;Xem lịch trình của bác sĩ&lt;/p&gt;" style="ellipse;whiteSpace=wrap;html=1;movable=1;resizable=1;rotatable=1;deletable=1;editable=1;locked=0;connectable=1;fontStyle=1" vertex="1" parent="1">
          <mxGeometry x="202" y="56" width="196" height="47" as="geometry" />
        </mxCell>
        <mxCell id="GqVJLROYOQyDWFtDQ3A7-5" value="&lt;p data-start=&quot;171&quot; data-end=&quot;193&quot;&gt;Chấp nhận lịch hẹn của bệnh nhân&lt;/p&gt;" style="ellipse;whiteSpace=wrap;html=1;movable=1;resizable=1;rotatable=1;deletable=1;editable=1;locked=0;connectable=1;fontStyle=1" vertex="1" parent="1">
          <mxGeometry x="315" y="103" width="196" height="47" as="geometry" />
        </mxCell>
        <mxCell id="GqVJLROYOQyDWFtDQ3A7-6" value="&lt;p data-start=&quot;171&quot; data-end=&quot;193&quot;&gt;Từ chối lịch hẹn của bệnh nhân&lt;/p&gt;" style="ellipse;whiteSpace=wrap;html=1;movable=1;resizable=1;rotatable=1;deletable=1;editable=1;locked=0;connectable=1;fontStyle=1" vertex="1" parent="1">
          <mxGeometry x="218" y="153" width="196" height="47" as="geometry" />
        </mxCell>
        <mxCell id="GqVJLROYOQyDWFtDQ3A7-7" style="rounded=0;orthogonalLoop=1;jettySize=auto;html=1;entryX=1;entryY=0.3333333333333333;entryDx=0;entryDy=0;entryPerimeter=0;endArrow=none;startFill=0;fontStyle=1;movable=1;resizable=1;rotatable=1;deletable=1;editable=1;locked=0;connectable=1;" edge="1" parent="1" source="GqVJLROYOQyDWFtDQ3A7-5" target="GqVJLROYOQyDWFtDQ3A7-2">
          <mxGeometry relative="1" as="geometry" />
        </mxCell>
        <mxCell id="GqVJLROYOQyDWFtDQ3A7-8" style="rounded=0;orthogonalLoop=1;jettySize=auto;html=1;exitX=0;exitY=0.5;exitDx=0;exitDy=0;endArrow=none;startFill=0;fontStyle=1;movable=1;resizable=1;rotatable=1;deletable=1;editable=1;locked=0;connectable=1;" edge="1" parent="1" source="GqVJLROYOQyDWFtDQ3A7-9" target="GqVJLROYOQyDWFtDQ3A7-2">
          <mxGeometry relative="1" as="geometry" />
        </mxCell>
        <mxCell id="GqVJLROYOQyDWFtDQ3A7-9" value="&lt;p data-start=&quot;288&quot; data-end=&quot;313&quot;&gt;Xem danh sách lịch hẹn của bệnh nhân&lt;/p&gt;" style="ellipse;whiteSpace=wrap;html=1;movable=1;resizable=1;rotatable=1;deletable=1;editable=1;locked=0;connectable=1;fontStyle=1" vertex="1" parent="1">
          <mxGeometry x="330" y="200" width="220" height="49" as="geometry" />
        </mxCell>
        <mxCell id="GqVJLROYOQyDWFtDQ3A7-10" style="rounded=0;orthogonalLoop=1;jettySize=auto;html=1;endArrow=none;startFill=0;fontStyle=1;movable=1;resizable=1;rotatable=1;deletable=1;editable=1;locked=0;connectable=1;" edge="1" parent="1" source="GqVJLROYOQyDWFtDQ3A7-11" target="GqVJLROYOQyDWFtDQ3A7-2">
          <mxGeometry relative="1" as="geometry" />
        </mxCell>
        <mxCell id="GqVJLROYOQyDWFtDQ3A7-11" value="&lt;p data-start=&quot;171&quot; data-end=&quot;193&quot;&gt;Xem chi tiết lịch hẹn của bệnh nhân&lt;/p&gt;" style="ellipse;whiteSpace=wrap;html=1;movable=1;resizable=1;rotatable=1;deletable=1;editable=1;locked=0;connectable=1;fontStyle=1" vertex="1" parent="1">
          <mxGeometry x="218" y="252" width="196" height="47" as="geometry" />
        </mxCell>
        <mxCell id="GqVJLROYOQyDWFtDQ3A7-12" style="rounded=0;orthogonalLoop=1;jettySize=auto;html=1;endArrow=none;startFill=0;fontStyle=1;movable=1;resizable=1;rotatable=1;deletable=1;editable=1;locked=0;connectable=1;" edge="1" parent="1" source="GqVJLROYOQyDWFtDQ3A7-13" target="GqVJLROYOQyDWFtDQ3A7-2">
          <mxGeometry relative="1" as="geometry" />
        </mxCell>
        <mxCell id="GqVJLROYOQyDWFtDQ3A7-13" value="&lt;p data-start=&quot;171&quot; data-end=&quot;193&quot;&gt;Phân công lịch hẹn của bệnh nhân cho bác sĩ&lt;/p&gt;" style="ellipse;whiteSpace=wrap;html=1;movable=1;resizable=1;rotatable=1;deletable=1;editable=1;locked=0;connectable=1;fontStyle=1" vertex="1" parent="1">
          <mxGeometry x="326" y="295" width="196" height="47" as="geometry" />
        </mxCell>
        <mxCell id="GqVJLROYOQyDWFtDQ3A7-14" style="rounded=0;orthogonalLoop=1;jettySize=auto;html=1;entryX=1;entryY=0.3333333333333333;entryDx=0;entryDy=0;entryPerimeter=0;endArrow=none;startFill=0;fontStyle=1;movable=1;resizable=1;rotatable=1;deletable=1;editable=1;locked=0;connectable=1;" edge="1" parent="1" source="GqVJLROYOQyDWFtDQ3A7-17" target="GqVJLROYOQyDWFtDQ3A7-2">
          <mxGeometry relative="1" as="geometry" />
        </mxCell>
        <mxCell id="GqVJLROYOQyDWFtDQ3A7-15" style="rounded=0;orthogonalLoop=1;jettySize=auto;html=1;endArrow=none;startFill=0;fontStyle=1;movable=1;resizable=1;rotatable=1;deletable=1;editable=1;locked=0;connectable=1;" edge="1" parent="1" source="GqVJLROYOQyDWFtDQ3A7-16" target="GqVJLROYOQyDWFtDQ3A7-2">
          <mxGeometry relative="1" as="geometry" />
        </mxCell>
        <mxCell id="GqVJLROYOQyDWFtDQ3A7-16" value="&lt;p data-start=&quot;171&quot; data-end=&quot;193&quot;&gt;Gửi trả lịch hẹn của bệnh nhân cho bác sĩ&lt;/p&gt;" style="ellipse;whiteSpace=wrap;html=1;movable=1;resizable=1;rotatable=1;deletable=1;editable=1;locked=0;connectable=1;fontStyle=1" vertex="1" parent="1">
          <mxGeometry x="229" y="345" width="196" height="47" as="geometry" />
        </mxCell>
        <mxCell id="GqVJLROYOQyDWFtDQ3A7-17" value="&lt;p data-start=&quot;171&quot; data-end=&quot;193&quot;&gt;Tạo, đọc, cập nhật kết quả y tế&lt;/p&gt;" style="ellipse;whiteSpace=wrap;html=1;movable=1;resizable=1;rotatable=1;deletable=1;editable=1;locked=0;connectable=1;fontStyle=1" vertex="1" parent="1">
          <mxGeometry x="210" y="400" width="196" height="47" as="geometry" />
        </mxCell>
        <mxCell id="GqVJLROYOQyDWFtDQ3A7-23" style="rounded=0;orthogonalLoop=1;jettySize=auto;html=1;exitX=0;exitY=0.5;exitDx=0;exitDy=0;entryX=1;entryY=0.3333333333333333;entryDx=0;entryDy=0;entryPerimeter=0;endArrow=none;startFill=0;fontStyle=1;movable=1;resizable=1;rotatable=1;deletable=1;editable=1;locked=0;connectable=1;" edge="1" parent="1" source="GqVJLROYOQyDWFtDQ3A7-6" target="GqVJLROYOQyDWFtDQ3A7-2">
          <mxGeometry relative="1" as="geometry" />
        </mxCell>
      </root>
    </mxGraphModel>
  </diagram>
  <diagram id="kEFle-kkikXtXwslczxB" name="Trang-7">
    <mxGraphModel dx="1020" dy="906" grid="1" gridSize="10" guides="1" tooltips="1" connect="1" arrows="1" fold="1" page="1" pageScale="1" pageWidth="827" pageHeight="1169" math="0" shadow="0">
      <root>
        <mxCell id="0" />
        <mxCell id="1" parent="0" />
        <mxCell id="dtYZLDMpv_4GMolz3jSe-1" value="" style="rounded=0;whiteSpace=wrap;html=1;movable=1;resizable=1;rotatable=1;deletable=1;editable=1;locked=0;connectable=1;fontStyle=1" vertex="1" parent="1">
          <mxGeometry x="165" y="60" width="435" height="320" as="geometry" />
        </mxCell>
        <mxCell id="dtYZLDMpv_4GMolz3jSe-2" value="Nhà thuốc" style="shape=umlActor;verticalLabelPosition=bottom;verticalAlign=top;html=1;outlineConnect=0;movable=1;resizable=1;rotatable=1;deletable=1;editable=1;locked=0;connectable=1;fontStyle=1" vertex="1" parent="1">
          <mxGeometry x="40" y="173" width="50" height="100" as="geometry" />
        </mxCell>
        <mxCell id="dtYZLDMpv_4GMolz3jSe-3" style="rounded=0;orthogonalLoop=1;jettySize=auto;html=1;exitX=0;exitY=0.5;exitDx=0;exitDy=0;endArrow=none;startFill=0;fontStyle=1;movable=1;resizable=1;rotatable=1;deletable=1;editable=1;locked=0;connectable=1;entryX=1;entryY=0.3333333333333333;entryDx=0;entryDy=0;entryPerimeter=0;" edge="1" parent="1" source="dtYZLDMpv_4GMolz3jSe-4" target="dtYZLDMpv_4GMolz3jSe-2">
          <mxGeometry relative="1" as="geometry">
            <mxPoint x="84.84846635298288" y="606.5151700106533" as="targetPoint" />
          </mxGeometry>
        </mxCell>
        <mxCell id="dtYZLDMpv_4GMolz3jSe-4" value="&lt;p data-start=&quot;171&quot; data-end=&quot;193&quot;&gt;Xem danh sách hồ sơ đơn thuốc&lt;/p&gt;" style="ellipse;whiteSpace=wrap;html=1;movable=1;resizable=1;rotatable=1;deletable=1;editable=1;locked=0;connectable=1;fontStyle=1" vertex="1" parent="1">
          <mxGeometry x="182" y="76" width="196" height="47" as="geometry" />
        </mxCell>
        <mxCell id="dtYZLDMpv_4GMolz3jSe-5" value="&lt;p data-start=&quot;171&quot; data-end=&quot;193&quot;&gt;Xem chi tiết hồ sơ đơn thuốc&lt;/p&gt;" style="ellipse;whiteSpace=wrap;html=1;movable=1;resizable=1;rotatable=1;deletable=1;editable=1;locked=0;connectable=1;fontStyle=1" vertex="1" parent="1">
          <mxGeometry x="295" y="123" width="196" height="47" as="geometry" />
        </mxCell>
        <mxCell id="dtYZLDMpv_4GMolz3jSe-6" value="&lt;p data-start=&quot;171&quot; data-end=&quot;193&quot;&gt;Nhận hồ sơ đơn thuốc&lt;/p&gt;" style="ellipse;whiteSpace=wrap;html=1;movable=1;resizable=1;rotatable=1;deletable=1;editable=1;locked=0;connectable=1;fontStyle=1" vertex="1" parent="1">
          <mxGeometry x="198" y="173" width="196" height="47" as="geometry" />
        </mxCell>
        <mxCell id="dtYZLDMpv_4GMolz3jSe-7" style="rounded=0;orthogonalLoop=1;jettySize=auto;html=1;entryX=1;entryY=0.3333333333333333;entryDx=0;entryDy=0;entryPerimeter=0;endArrow=none;startFill=0;fontStyle=1;movable=1;resizable=1;rotatable=1;deletable=1;editable=1;locked=0;connectable=1;" edge="1" parent="1" source="dtYZLDMpv_4GMolz3jSe-5" target="dtYZLDMpv_4GMolz3jSe-2">
          <mxGeometry relative="1" as="geometry" />
        </mxCell>
        <mxCell id="dtYZLDMpv_4GMolz3jSe-8" style="rounded=0;orthogonalLoop=1;jettySize=auto;html=1;exitX=0;exitY=0.5;exitDx=0;exitDy=0;endArrow=none;startFill=0;fontStyle=1;movable=1;resizable=1;rotatable=1;deletable=1;editable=1;locked=0;connectable=1;" edge="1" parent="1" source="dtYZLDMpv_4GMolz3jSe-9" target="dtYZLDMpv_4GMolz3jSe-2">
          <mxGeometry relative="1" as="geometry" />
        </mxCell>
        <mxCell id="dtYZLDMpv_4GMolz3jSe-9" value="&lt;p data-start=&quot;288&quot; data-end=&quot;313&quot;&gt;Tạo hóa đơn&lt;/p&gt;" style="ellipse;whiteSpace=wrap;html=1;movable=1;resizable=1;rotatable=1;deletable=1;editable=1;locked=0;connectable=1;fontStyle=1" vertex="1" parent="1">
          <mxGeometry x="310" y="220" width="220" height="49" as="geometry" />
        </mxCell>
        <mxCell id="dtYZLDMpv_4GMolz3jSe-10" style="rounded=0;orthogonalLoop=1;jettySize=auto;html=1;endArrow=none;startFill=0;fontStyle=1;movable=1;resizable=1;rotatable=1;deletable=1;editable=1;locked=0;connectable=1;" edge="1" parent="1" source="dtYZLDMpv_4GMolz3jSe-11" target="dtYZLDMpv_4GMolz3jSe-2">
          <mxGeometry relative="1" as="geometry" />
        </mxCell>
        <mxCell id="dtYZLDMpv_4GMolz3jSe-11" value="&lt;p data-start=&quot;171&quot; data-end=&quot;193&quot;&gt;Xuất ra tệp CSV/PDF&lt;/p&gt;" style="ellipse;whiteSpace=wrap;html=1;movable=1;resizable=1;rotatable=1;deletable=1;editable=1;locked=0;connectable=1;fontStyle=1" vertex="1" parent="1">
          <mxGeometry x="198" y="272" width="196" height="47" as="geometry" />
        </mxCell>
        <mxCell id="dtYZLDMpv_4GMolz3jSe-12" style="rounded=0;orthogonalLoop=1;jettySize=auto;html=1;endArrow=none;startFill=0;fontStyle=1;movable=1;resizable=1;rotatable=1;deletable=1;editable=1;locked=0;connectable=1;" edge="1" parent="1" source="dtYZLDMpv_4GMolz3jSe-13" target="dtYZLDMpv_4GMolz3jSe-2">
          <mxGeometry relative="1" as="geometry" />
        </mxCell>
        <mxCell id="dtYZLDMpv_4GMolz3jSe-13" value="&lt;p data-start=&quot;171&quot; data-end=&quot;193&quot;&gt;Xem lịch sử giao dịch&lt;/p&gt;" style="ellipse;whiteSpace=wrap;html=1;movable=1;resizable=1;rotatable=1;deletable=1;editable=1;locked=0;connectable=1;fontStyle=1" vertex="1" parent="1">
          <mxGeometry x="180" y="333" width="196" height="47" as="geometry" />
        </mxCell>
        <mxCell id="dtYZLDMpv_4GMolz3jSe-18" style="rounded=0;orthogonalLoop=1;jettySize=auto;html=1;exitX=0;exitY=0.5;exitDx=0;exitDy=0;entryX=1;entryY=0.3333333333333333;entryDx=0;entryDy=0;entryPerimeter=0;endArrow=none;startFill=0;fontStyle=1;movable=1;resizable=1;rotatable=1;deletable=1;editable=1;locked=0;connectable=1;" edge="1" parent="1" source="dtYZLDMpv_4GMolz3jSe-6" target="dtYZLDMpv_4GMolz3jSe-2">
          <mxGeometry relative="1" as="geometry" />
        </mxCell>
      </root>
    </mxGraphModel>
  </diagram>
  <diagram id="XT_uEdXp2VoGt44XdZOD" name="Trang-8">
    <mxGraphModel dx="2477" dy="2200" grid="0" gridSize="10" guides="1" tooltips="1" connect="1" arrows="1" fold="1" page="1" pageScale="1" pageWidth="827" pageHeight="1169" math="0" shadow="0">
      <root>
        <mxCell id="0" />
        <mxCell id="1" parent="0" />
        <mxCell id="HDIT_yLzDDDKBpJzzRqj-1" value="User" style="shape=umlLifeline;perimeter=lifelinePerimeter;whiteSpace=wrap;container=1;dropTarget=0;collapsible=0;recursiveResize=0;outlineConnect=0;portConstraint=eastwest;newEdgeStyle={&quot;edgeStyle&quot;:&quot;elbowEdgeStyle&quot;,&quot;elbow&quot;:&quot;vertical&quot;,&quot;curved&quot;:0,&quot;rounded&quot;:0};size=65;strokeWidth=4;fontSize=28;" vertex="1" parent="1">
          <mxGeometry x="53" y="127" width="150" height="926" as="geometry" />
        </mxCell>
        <mxCell id="HDIT_yLzDDDKBpJzzRqj-2" value="Login&#xa;Screen" style="shape=umlLifeline;perimeter=lifelinePerimeter;whiteSpace=wrap;container=1;dropTarget=0;collapsible=0;recursiveResize=0;outlineConnect=0;portConstraint=eastwest;newEdgeStyle={&quot;edgeStyle&quot;:&quot;elbowEdgeStyle&quot;,&quot;elbow&quot;:&quot;vertical&quot;,&quot;curved&quot;:0,&quot;rounded&quot;:0};size=65;strokeWidth=4;fontSize=28;" vertex="1" parent="1">
          <mxGeometry x="422" y="127" width="150" height="926" as="geometry" />
        </mxCell>
        <mxCell id="HDIT_yLzDDDKBpJzzRqj-3" value="" style="points=[];perimeter=orthogonalPerimeter;outlineConnect=0;targetShapes=umlLifeline;portConstraint=eastwest;newEdgeStyle={&quot;edgeStyle&quot;:&quot;elbowEdgeStyle&quot;,&quot;elbow&quot;:&quot;vertical&quot;,&quot;curved&quot;:0,&quot;rounded&quot;:0};strokeWidth=4;fontSize=28;" vertex="1" parent="HDIT_yLzDDDKBpJzzRqj-2">
          <mxGeometry x="70" y="103" width="10" height="728" as="geometry" />
        </mxCell>
        <mxCell id="HDIT_yLzDDDKBpJzzRqj-4" value="UserRouter" style="shape=umlLifeline;perimeter=lifelinePerimeter;whiteSpace=wrap;container=1;dropTarget=0;collapsible=0;recursiveResize=0;outlineConnect=0;portConstraint=eastwest;newEdgeStyle={&quot;edgeStyle&quot;:&quot;elbowEdgeStyle&quot;,&quot;elbow&quot;:&quot;vertical&quot;,&quot;curved&quot;:0,&quot;rounded&quot;:0};size=65;strokeWidth=4;fontSize=28;" vertex="1" parent="1">
          <mxGeometry x="710" y="127" width="150" height="926" as="geometry" />
        </mxCell>
        <mxCell id="HDIT_yLzDDDKBpJzzRqj-5" value="" style="points=[];perimeter=orthogonalPerimeter;outlineConnect=0;targetShapes=umlLifeline;portConstraint=eastwest;newEdgeStyle={&quot;edgeStyle&quot;:&quot;elbowEdgeStyle&quot;,&quot;elbow&quot;:&quot;vertical&quot;,&quot;curved&quot;:0,&quot;rounded&quot;:0};strokeWidth=4;fontSize=28;" vertex="1" parent="HDIT_yLzDDDKBpJzzRqj-4">
          <mxGeometry x="70" y="151" width="10" height="50" as="geometry" />
        </mxCell>
        <mxCell id="HDIT_yLzDDDKBpJzzRqj-6" value="Auth&#xa;Controller" style="shape=umlLifeline;perimeter=lifelinePerimeter;whiteSpace=wrap;container=1;dropTarget=0;collapsible=0;recursiveResize=0;outlineConnect=0;portConstraint=eastwest;newEdgeStyle={&quot;edgeStyle&quot;:&quot;elbowEdgeStyle&quot;,&quot;elbow&quot;:&quot;vertical&quot;,&quot;curved&quot;:0,&quot;rounded&quot;:0};size=65;strokeWidth=4;fontSize=28;" vertex="1" parent="1">
          <mxGeometry x="1023" y="127" width="150" height="926" as="geometry" />
        </mxCell>
        <mxCell id="HDIT_yLzDDDKBpJzzRqj-7" value="" style="points=[];perimeter=orthogonalPerimeter;outlineConnect=0;targetShapes=umlLifeline;portConstraint=eastwest;newEdgeStyle={&quot;edgeStyle&quot;:&quot;elbowEdgeStyle&quot;,&quot;elbow&quot;:&quot;vertical&quot;,&quot;curved&quot;:0,&quot;rounded&quot;:0};strokeWidth=4;fontSize=28;" vertex="1" parent="HDIT_yLzDDDKBpJzzRqj-6">
          <mxGeometry x="70" y="199" width="10" height="612" as="geometry" />
        </mxCell>
        <mxCell id="HDIT_yLzDDDKBpJzzRqj-8" value="Auth&#xa;Middleware" style="shape=umlLifeline;perimeter=lifelinePerimeter;whiteSpace=wrap;container=1;dropTarget=0;collapsible=0;recursiveResize=0;outlineConnect=0;portConstraint=eastwest;newEdgeStyle={&quot;edgeStyle&quot;:&quot;elbowEdgeStyle&quot;,&quot;elbow&quot;:&quot;vertical&quot;,&quot;curved&quot;:0,&quot;rounded&quot;:0};size=65;strokeWidth=4;fontSize=28;" vertex="1" parent="1">
          <mxGeometry x="1243" y="127" width="150" height="926" as="geometry" />
        </mxCell>
        <mxCell id="HDIT_yLzDDDKBpJzzRqj-9" value="" style="points=[];perimeter=orthogonalPerimeter;outlineConnect=0;targetShapes=umlLifeline;portConstraint=eastwest;newEdgeStyle={&quot;edgeStyle&quot;:&quot;elbowEdgeStyle&quot;,&quot;elbow&quot;:&quot;vertical&quot;,&quot;curved&quot;:0,&quot;rounded&quot;:0};strokeWidth=4;fontSize=28;" vertex="1" parent="HDIT_yLzDDDKBpJzzRqj-8">
          <mxGeometry x="70" y="247" width="10" height="544" as="geometry" />
        </mxCell>
        <mxCell id="HDIT_yLzDDDKBpJzzRqj-10" value="JWT&#xa;Service" style="shape=umlLifeline;perimeter=lifelinePerimeter;whiteSpace=wrap;container=1;dropTarget=0;collapsible=0;recursiveResize=0;outlineConnect=0;portConstraint=eastwest;newEdgeStyle={&quot;edgeStyle&quot;:&quot;elbowEdgeStyle&quot;,&quot;elbow&quot;:&quot;vertical&quot;,&quot;curved&quot;:0,&quot;rounded&quot;:0};size=65;strokeWidth=4;fontSize=28;" vertex="1" parent="1">
          <mxGeometry x="1443" y="127" width="150" height="926" as="geometry" />
        </mxCell>
        <mxCell id="HDIT_yLzDDDKBpJzzRqj-11" value="" style="points=[];perimeter=orthogonalPerimeter;outlineConnect=0;targetShapes=umlLifeline;portConstraint=eastwest;newEdgeStyle={&quot;edgeStyle&quot;:&quot;elbowEdgeStyle&quot;,&quot;elbow&quot;:&quot;vertical&quot;,&quot;curved&quot;:0,&quot;rounded&quot;:0};strokeWidth=4;fontSize=28;" vertex="1" parent="HDIT_yLzDDDKBpJzzRqj-10">
          <mxGeometry x="70" y="715" width="10" height="49" as="geometry" />
        </mxCell>
        <mxCell id="HDIT_yLzDDDKBpJzzRqj-12" value="Database" style="shape=umlLifeline;perimeter=lifelinePerimeter;whiteSpace=wrap;container=1;dropTarget=0;collapsible=0;recursiveResize=0;outlineConnect=0;portConstraint=eastwest;newEdgeStyle={&quot;edgeStyle&quot;:&quot;elbowEdgeStyle&quot;,&quot;elbow&quot;:&quot;vertical&quot;,&quot;curved&quot;:0,&quot;rounded&quot;:0};size=65;strokeWidth=4;fontSize=28;" vertex="1" parent="1">
          <mxGeometry x="1643" y="127" width="150" height="926" as="geometry" />
        </mxCell>
        <mxCell id="HDIT_yLzDDDKBpJzzRqj-13" value="" style="points=[];perimeter=orthogonalPerimeter;outlineConnect=0;targetShapes=umlLifeline;portConstraint=eastwest;newEdgeStyle={&quot;edgeStyle&quot;:&quot;elbowEdgeStyle&quot;,&quot;elbow&quot;:&quot;vertical&quot;,&quot;curved&quot;:0,&quot;rounded&quot;:0};strokeWidth=4;fontSize=28;" vertex="1" parent="HDIT_yLzDDDKBpJzzRqj-12">
          <mxGeometry x="70" y="295" width="10" height="50" as="geometry" />
        </mxCell>
        <mxCell id="HDIT_yLzDDDKBpJzzRqj-14" value="alt" style="shape=umlFrame;pointerEvents=0;dropTarget=0;strokeColor=#3333FF;height=33;width=47;strokeWidth=4;fontSize=28;" vertex="1" parent="1">
          <mxGeometry x="482" y="490" width="1051" height="468" as="geometry" />
        </mxCell>
        <mxCell id="HDIT_yLzDDDKBpJzzRqj-15" value="[&quot;Dữ liệu đầu vào không hợp lệ&quot;]" style="text;strokeColor=none;fillColor=none;align=center;verticalAlign=middle;whiteSpace=wrap;strokeWidth=4;fontSize=28;spacingRight=300;spacingTop=10;" vertex="1" parent="HDIT_yLzDDDKBpJzzRqj-14">
          <mxGeometry x="29" width="1021" height="20" as="geometry" />
        </mxCell>
        <mxCell id="HDIT_yLzDDDKBpJzzRqj-16" value="[&quot;Người dùng không tồn tại&quot;]" style="shape=line;dashed=1;whiteSpace=wrap;verticalAlign=top;labelPosition=center;verticalLabelPosition=middle;align=center;strokeColor=#B3B3B3;strokeWidth=4;fontSize=28;spacingRight=200;" vertex="1" parent="HDIT_yLzDDDKBpJzzRqj-14">
          <mxGeometry y="98" width="1051" height="4" as="geometry" />
        </mxCell>
        <mxCell id="HDIT_yLzDDDKBpJzzRqj-17" value="[&quot;Mật khẩu không đúng&quot;]" style="shape=line;dashed=1;whiteSpace=wrap;verticalAlign=top;labelPosition=center;verticalLabelPosition=middle;align=center;strokeColor=#B3B3B3;strokeWidth=4;fontSize=28;spacingLeft=0;spacingRight=200;" vertex="1" parent="HDIT_yLzDDDKBpJzzRqj-14">
          <mxGeometry y="191" width="1051" height="4" as="geometry" />
        </mxCell>
        <mxCell id="HDIT_yLzDDDKBpJzzRqj-18" value="[&quot;Người dùng hợp lệ&quot;]" style="shape=line;dashed=1;whiteSpace=wrap;verticalAlign=top;labelPosition=center;verticalLabelPosition=middle;align=center;strokeColor=#B3B3B3;strokeWidth=4;fontSize=28;spacingRight=200;" vertex="1" parent="HDIT_yLzDDDKBpJzzRqj-14">
          <mxGeometry y="284" width="1051" height="4" as="geometry" />
        </mxCell>
        <mxCell id="HDIT_yLzDDDKBpJzzRqj-19" value="Gửi yêu cầu đăng nhập &#xa;(email, password)" style="verticalAlign=bottom;edgeStyle=elbowEdgeStyle;elbow=vertical;curved=0;rounded=0;endArrow=block;strokeWidth=4;fontSize=28;" edge="1" parent="1" source="HDIT_yLzDDDKBpJzzRqj-1" target="HDIT_yLzDDDKBpJzzRqj-3">
          <mxGeometry x="0.047" y="-62" relative="1" as="geometry">
            <Array as="points">
              <mxPoint x="319" y="230" />
            </Array>
            <mxPoint as="offset" />
          </mxGeometry>
        </mxCell>
        <mxCell id="HDIT_yLzDDDKBpJzzRqj-20" value="POST /login &#xa;(email, password)" style="verticalAlign=bottom;edgeStyle=elbowEdgeStyle;elbow=vertical;curved=0;rounded=0;endArrow=block;strokeWidth=4;fontSize=28;" edge="1" parent="1" source="HDIT_yLzDDDKBpJzzRqj-3" target="HDIT_yLzDDDKBpJzzRqj-5">
          <mxGeometry x="0.0072" y="8" relative="1" as="geometry">
            <Array as="points">
              <mxPoint x="650" y="278" />
            </Array>
            <mxPoint as="offset" />
          </mxGeometry>
        </mxCell>
        <mxCell id="HDIT_yLzDDDKBpJzzRqj-21" value="Chuyển tiếp yêu cầu &#xa;tới controller" style="verticalAlign=bottom;edgeStyle=elbowEdgeStyle;elbow=vertical;curved=0;rounded=0;endArrow=block;strokeWidth=4;fontSize=28;" edge="1" parent="1" source="HDIT_yLzDDDKBpJzzRqj-5" target="HDIT_yLzDDDKBpJzzRqj-7">
          <mxGeometry x="-0.0033" y="12" relative="1" as="geometry">
            <Array as="points">
              <mxPoint x="950" y="326" />
            </Array>
            <mxPoint as="offset" />
          </mxGeometry>
        </mxCell>
        <mxCell id="HDIT_yLzDDDKBpJzzRqj-22" value="Xác thực &#xa;người dùng" style="verticalAlign=bottom;edgeStyle=elbowEdgeStyle;elbow=vertical;curved=0;rounded=0;endArrow=block;strokeWidth=4;fontSize=28;" edge="1" parent="1" source="HDIT_yLzDDDKBpJzzRqj-7" target="HDIT_yLzDDDKBpJzzRqj-9">
          <mxGeometry x="-0.0075" y="12" relative="1" as="geometry">
            <Array as="points">
              <mxPoint x="1217" y="374" />
            </Array>
            <mxPoint as="offset" />
          </mxGeometry>
        </mxCell>
        <mxCell id="HDIT_yLzDDDKBpJzzRqj-23" value="Kiểm tra người dùng &#xa;trong database (email)" style="verticalAlign=bottom;edgeStyle=elbowEdgeStyle;elbow=vertical;curved=0;rounded=0;endArrow=block;strokeWidth=4;fontSize=28;" edge="1" parent="1" source="HDIT_yLzDDDKBpJzzRqj-9" target="HDIT_yLzDDDKBpJzzRqj-13">
          <mxGeometry y="4" relative="1" as="geometry">
            <Array as="points">
              <mxPoint x="1527" y="422" />
            </Array>
            <mxPoint as="offset" />
          </mxGeometry>
        </mxCell>
        <mxCell id="HDIT_yLzDDDKBpJzzRqj-24" value="Trả về thông tin người dùng" style="verticalAlign=bottom;edgeStyle=elbowEdgeStyle;elbow=vertical;curved=0;rounded=0;dashed=1;dashPattern=2 3;endArrow=block;strokeWidth=4;fontSize=28;" edge="1" parent="1" source="HDIT_yLzDDDKBpJzzRqj-12" target="HDIT_yLzDDDKBpJzzRqj-9">
          <mxGeometry relative="1" as="geometry">
            <Array as="points">
              <mxPoint x="1530" y="470" />
            </Array>
          </mxGeometry>
        </mxCell>
        <mxCell id="HDIT_yLzDDDKBpJzzRqj-25" value="Trả về lỗi &quot;Dữ liệu đầu vào không hợp lệ&quot;" style="verticalAlign=bottom;edgeStyle=elbowEdgeStyle;elbow=vertical;curved=0;rounded=0;dashed=1;dashPattern=2 3;endArrow=block;strokeWidth=4;fontSize=28;" edge="1" parent="1" source="HDIT_yLzDDDKBpJzzRqj-9" target="HDIT_yLzDDDKBpJzzRqj-3">
          <mxGeometry relative="1" as="geometry">
            <Array as="points">
              <mxPoint x="919" y="563" />
            </Array>
          </mxGeometry>
        </mxCell>
        <mxCell id="HDIT_yLzDDDKBpJzzRqj-26" value="Trả về lỗi &quot;Người dùng không tồn tại&quot;" style="verticalAlign=bottom;edgeStyle=elbowEdgeStyle;elbow=vertical;curved=0;rounded=0;dashed=1;dashPattern=2 3;endArrow=block;strokeWidth=4;fontSize=28;" edge="1" parent="1" source="HDIT_yLzDDDKBpJzzRqj-9" target="HDIT_yLzDDDKBpJzzRqj-3">
          <mxGeometry relative="1" as="geometry">
            <Array as="points">
              <mxPoint x="919" y="656" />
            </Array>
          </mxGeometry>
        </mxCell>
        <mxCell id="HDIT_yLzDDDKBpJzzRqj-27" value="Trả về lỗi &quot;Mật khẩu không đúng&quot;" style="verticalAlign=bottom;edgeStyle=elbowEdgeStyle;elbow=vertical;curved=0;rounded=0;dashed=1;dashPattern=2 3;endArrow=block;strokeWidth=4;fontSize=28;" edge="1" parent="1" source="HDIT_yLzDDDKBpJzzRqj-9" target="HDIT_yLzDDDKBpJzzRqj-3">
          <mxGeometry relative="1" as="geometry">
            <Array as="points">
              <mxPoint x="919" y="749" />
            </Array>
          </mxGeometry>
        </mxCell>
        <mxCell id="HDIT_yLzDDDKBpJzzRqj-28" value="Sinh JWT token" style="verticalAlign=bottom;edgeStyle=elbowEdgeStyle;elbow=vertical;curved=0;rounded=0;endArrow=block;strokeWidth=4;fontSize=28;" edge="1" parent="1" source="HDIT_yLzDDDKBpJzzRqj-9" target="HDIT_yLzDDDKBpJzzRqj-11">
          <mxGeometry x="-0.0211" y="9" relative="1" as="geometry">
            <Array as="points">
              <mxPoint x="1427" y="842" />
            </Array>
            <mxPoint as="offset" />
          </mxGeometry>
        </mxCell>
        <mxCell id="HDIT_yLzDDDKBpJzzRqj-29" value="Trả về token" style="verticalAlign=bottom;edgeStyle=elbowEdgeStyle;elbow=vertical;curved=0;rounded=0;dashed=1;dashPattern=2 3;endArrow=block;strokeWidth=4;fontSize=28;" edge="1" parent="1" source="HDIT_yLzDDDKBpJzzRqj-10" target="HDIT_yLzDDDKBpJzzRqj-9">
          <mxGeometry relative="1" as="geometry">
            <Array as="points">
              <mxPoint x="1430" y="890" />
            </Array>
          </mxGeometry>
        </mxCell>
        <mxCell id="HDIT_yLzDDDKBpJzzRqj-30" value="Trả về token và thông tin người dùng" style="verticalAlign=bottom;edgeStyle=elbowEdgeStyle;elbow=vertical;curved=0;rounded=0;dashed=1;dashPattern=2 3;endArrow=block;strokeWidth=4;fontSize=28;" edge="1" parent="1" source="HDIT_yLzDDDKBpJzzRqj-8" target="HDIT_yLzDDDKBpJzzRqj-3">
          <mxGeometry relative="1" as="geometry">
            <Array as="points">
              <mxPoint x="919" y="938" />
            </Array>
          </mxGeometry>
        </mxCell>
      </root>
    </mxGraphModel>
  </diagram>
  <diagram id="XaSXLNzb8UiUWf0tYRFg" name="Trang-9">
    <mxGraphModel dx="267" dy="237" grid="1" gridSize="10" guides="1" tooltips="1" connect="1" arrows="1" fold="1" page="1" pageScale="1" pageWidth="827" pageHeight="1169" math="0" shadow="0">
      <root>
        <mxCell id="0" />
        <mxCell id="1" parent="0" />
        <mxCell id="4D6hWr7txT4YaTp5c9ir-1" value="Người dùng" style="shape=umlLifeline;perimeter=lifelinePerimeter;whiteSpace=wrap;container=1;dropTarget=0;collapsible=0;recursiveResize=0;outlineConnect=0;portConstraint=eastwest;newEdgeStyle={&quot;edgeStyle&quot;:&quot;elbowEdgeStyle&quot;,&quot;elbow&quot;:&quot;vertical&quot;,&quot;curved&quot;:0,&quot;rounded&quot;:0};size=65;fontSize=25;" vertex="1" parent="1">
          <mxGeometry x="20" y="20" width="150" height="2215" as="geometry" />
        </mxCell>
        <mxCell id="4D6hWr7txT4YaTp5c9ir-2" value="Màn hình quên mật khẩu" style="shape=umlLifeline;perimeter=lifelinePerimeter;whiteSpace=wrap;container=1;dropTarget=0;collapsible=0;recursiveResize=0;outlineConnect=0;portConstraint=eastwest;newEdgeStyle={&quot;edgeStyle&quot;:&quot;elbowEdgeStyle&quot;,&quot;elbow&quot;:&quot;vertical&quot;,&quot;curved&quot;:0,&quot;rounded&quot;:0};size=65;fontSize=25;" vertex="1" parent="1">
          <mxGeometry x="333" y="20" width="198" height="2215" as="geometry" />
        </mxCell>
        <mxCell id="4D6hWr7txT4YaTp5c9ir-3" value="" style="points=[];perimeter=orthogonalPerimeter;outlineConnect=0;targetShapes=umlLifeline;portConstraint=eastwest;newEdgeStyle={&quot;edgeStyle&quot;:&quot;elbowEdgeStyle&quot;,&quot;elbow&quot;:&quot;vertical&quot;,&quot;curved&quot;:0,&quot;rounded&quot;:0};fontSize=25;" vertex="1" parent="4D6hWr7txT4YaTp5c9ir-2">
          <mxGeometry x="94" y="152" width="10" height="788" as="geometry" />
        </mxCell>
        <mxCell id="4D6hWr7txT4YaTp5c9ir-4" value="" style="points=[];perimeter=orthogonalPerimeter;outlineConnect=0;targetShapes=umlLifeline;portConstraint=eastwest;newEdgeStyle={&quot;edgeStyle&quot;:&quot;elbowEdgeStyle&quot;,&quot;elbow&quot;:&quot;vertical&quot;,&quot;curved&quot;:0,&quot;rounded&quot;:0};fontSize=25;" vertex="1" parent="4D6hWr7txT4YaTp5c9ir-2">
          <mxGeometry x="94" y="1037" width="10" height="1073" as="geometry" />
        </mxCell>
        <mxCell id="4D6hWr7txT4YaTp5c9ir-5" value="AuthRouter" style="shape=umlLifeline;perimeter=lifelinePerimeter;whiteSpace=wrap;container=1;dropTarget=0;collapsible=0;recursiveResize=0;outlineConnect=0;portConstraint=eastwest;newEdgeStyle={&quot;edgeStyle&quot;:&quot;elbowEdgeStyle&quot;,&quot;elbow&quot;:&quot;vertical&quot;,&quot;curved&quot;:0,&quot;rounded&quot;:0};size=65;fontSize=25;" vertex="1" parent="1">
          <mxGeometry x="630" y="20" width="150" height="2215" as="geometry" />
        </mxCell>
        <mxCell id="4D6hWr7txT4YaTp5c9ir-6" value="" style="points=[];perimeter=orthogonalPerimeter;outlineConnect=0;targetShapes=umlLifeline;portConstraint=eastwest;newEdgeStyle={&quot;edgeStyle&quot;:&quot;elbowEdgeStyle&quot;,&quot;elbow&quot;:&quot;vertical&quot;,&quot;curved&quot;:0,&quot;rounded&quot;:0};fontSize=25;" vertex="1" parent="4D6hWr7txT4YaTp5c9ir-5">
          <mxGeometry x="70" y="219" width="10" height="663" as="geometry" />
        </mxCell>
        <mxCell id="4D6hWr7txT4YaTp5c9ir-7" value="" style="points=[];perimeter=orthogonalPerimeter;outlineConnect=0;targetShapes=umlLifeline;portConstraint=eastwest;newEdgeStyle={&quot;edgeStyle&quot;:&quot;elbowEdgeStyle&quot;,&quot;elbow&quot;:&quot;vertical&quot;,&quot;curved&quot;:0,&quot;rounded&quot;:0};fontSize=25;" vertex="1" parent="4D6hWr7txT4YaTp5c9ir-5">
          <mxGeometry x="70" y="1104" width="10" height="948" as="geometry" />
        </mxCell>
        <mxCell id="4D6hWr7txT4YaTp5c9ir-8" value="Auth&#xa;Controller" style="shape=umlLifeline;perimeter=lifelinePerimeter;whiteSpace=wrap;container=1;dropTarget=0;collapsible=0;recursiveResize=0;outlineConnect=0;portConstraint=eastwest;newEdgeStyle={&quot;edgeStyle&quot;:&quot;elbowEdgeStyle&quot;,&quot;elbow&quot;:&quot;vertical&quot;,&quot;curved&quot;:0,&quot;rounded&quot;:0};size=65;fontSize=25;" vertex="1" parent="1">
          <mxGeometry x="854" y="20" width="150" height="2215" as="geometry" />
        </mxCell>
        <mxCell id="4D6hWr7txT4YaTp5c9ir-9" value="" style="points=[];perimeter=orthogonalPerimeter;outlineConnect=0;targetShapes=umlLifeline;portConstraint=eastwest;newEdgeStyle={&quot;edgeStyle&quot;:&quot;elbowEdgeStyle&quot;,&quot;elbow&quot;:&quot;vertical&quot;,&quot;curved&quot;:0,&quot;rounded&quot;:0};fontSize=25;" vertex="1" parent="4D6hWr7txT4YaTp5c9ir-8">
          <mxGeometry x="70" y="267" width="10" height="557" as="geometry" />
        </mxCell>
        <mxCell id="4D6hWr7txT4YaTp5c9ir-10" value="" style="points=[];perimeter=orthogonalPerimeter;outlineConnect=0;targetShapes=umlLifeline;portConstraint=eastwest;newEdgeStyle={&quot;edgeStyle&quot;:&quot;elbowEdgeStyle&quot;,&quot;elbow&quot;:&quot;vertical&quot;,&quot;curved&quot;:0,&quot;rounded&quot;:0};fontSize=25;" vertex="1" parent="4D6hWr7txT4YaTp5c9ir-8">
          <mxGeometry x="70" y="1152" width="10" height="842" as="geometry" />
        </mxCell>
        <mxCell id="4D6hWr7txT4YaTp5c9ir-11" value="Database" style="shape=umlLifeline;perimeter=lifelinePerimeter;whiteSpace=wrap;container=1;dropTarget=0;collapsible=0;recursiveResize=0;outlineConnect=0;portConstraint=eastwest;newEdgeStyle={&quot;edgeStyle&quot;:&quot;elbowEdgeStyle&quot;,&quot;elbow&quot;:&quot;vertical&quot;,&quot;curved&quot;:0,&quot;rounded&quot;:0};size=65;fontSize=25;" vertex="1" parent="1">
          <mxGeometry x="1165" y="20" width="150" height="2215" as="geometry" />
        </mxCell>
        <mxCell id="4D6hWr7txT4YaTp5c9ir-12" value="" style="points=[];perimeter=orthogonalPerimeter;outlineConnect=0;targetShapes=umlLifeline;portConstraint=eastwest;newEdgeStyle={&quot;edgeStyle&quot;:&quot;elbowEdgeStyle&quot;,&quot;elbow&quot;:&quot;vertical&quot;,&quot;curved&quot;:0,&quot;rounded&quot;:0};fontSize=25;" vertex="1" parent="4D6hWr7txT4YaTp5c9ir-11">
          <mxGeometry x="70" y="315" width="10" height="28" as="geometry" />
        </mxCell>
        <mxCell id="4D6hWr7txT4YaTp5c9ir-13" value="" style="points=[];perimeter=orthogonalPerimeter;outlineConnect=0;targetShapes=umlLifeline;portConstraint=eastwest;newEdgeStyle={&quot;edgeStyle&quot;:&quot;elbowEdgeStyle&quot;,&quot;elbow&quot;:&quot;vertical&quot;,&quot;curved&quot;:0,&quot;rounded&quot;:0};fontSize=25;" vertex="1" parent="4D6hWr7txT4YaTp5c9ir-11">
          <mxGeometry x="70" y="1200" width="10" height="28" as="geometry" />
        </mxCell>
        <mxCell id="4D6hWr7txT4YaTp5c9ir-14" value="" style="points=[];perimeter=orthogonalPerimeter;outlineConnect=0;targetShapes=umlLifeline;portConstraint=eastwest;newEdgeStyle={&quot;edgeStyle&quot;:&quot;elbowEdgeStyle&quot;,&quot;elbow&quot;:&quot;vertical&quot;,&quot;curved&quot;:0,&quot;rounded&quot;:0};fontSize=25;" vertex="1" parent="4D6hWr7txT4YaTp5c9ir-11">
          <mxGeometry x="70" y="1908" width="10" height="28" as="geometry" />
        </mxCell>
        <mxCell id="4D6hWr7txT4YaTp5c9ir-15" value="Dịch vụ Email" style="shape=umlLifeline;perimeter=lifelinePerimeter;whiteSpace=wrap;container=1;dropTarget=0;collapsible=0;recursiveResize=0;outlineConnect=0;portConstraint=eastwest;newEdgeStyle={&quot;edgeStyle&quot;:&quot;elbowEdgeStyle&quot;,&quot;elbow&quot;:&quot;vertical&quot;,&quot;curved&quot;:0,&quot;rounded&quot;:0};size=65;fontSize=25;" vertex="1" parent="1">
          <mxGeometry x="1365" y="20" width="150" height="2215" as="geometry" />
        </mxCell>
        <mxCell id="4D6hWr7txT4YaTp5c9ir-16" value="" style="points=[];perimeter=orthogonalPerimeter;outlineConnect=0;targetShapes=umlLifeline;portConstraint=eastwest;newEdgeStyle={&quot;edgeStyle&quot;:&quot;elbowEdgeStyle&quot;,&quot;elbow&quot;:&quot;vertical&quot;,&quot;curved&quot;:0,&quot;rounded&quot;:0};fontSize=25;" vertex="1" parent="4D6hWr7txT4YaTp5c9ir-15">
          <mxGeometry x="70" y="690" width="10" height="18" as="geometry" />
        </mxCell>
        <mxCell id="4D6hWr7txT4YaTp5c9ir-17" value="Lưu trữ tạm thời (OTP)" style="shape=umlLifeline;perimeter=lifelinePerimeter;whiteSpace=wrap;container=1;dropTarget=0;collapsible=0;recursiveResize=0;outlineConnect=0;portConstraint=eastwest;newEdgeStyle={&quot;edgeStyle&quot;:&quot;elbowEdgeStyle&quot;,&quot;elbow&quot;:&quot;vertical&quot;,&quot;curved&quot;:0,&quot;rounded&quot;:0};size=65;fontSize=25;" vertex="1" parent="1">
          <mxGeometry x="1565" y="20" width="183" height="2215" as="geometry" />
        </mxCell>
        <mxCell id="4D6hWr7txT4YaTp5c9ir-18" value="" style="points=[];perimeter=orthogonalPerimeter;outlineConnect=0;targetShapes=umlLifeline;portConstraint=eastwest;newEdgeStyle={&quot;edgeStyle&quot;:&quot;elbowEdgeStyle&quot;,&quot;elbow&quot;:&quot;vertical&quot;,&quot;curved&quot;:0,&quot;rounded&quot;:0};fontSize=25;" vertex="1" parent="4D6hWr7txT4YaTp5c9ir-17">
          <mxGeometry x="87" y="642" width="10" height="1178" as="geometry" />
        </mxCell>
        <mxCell id="4D6hWr7txT4YaTp5c9ir-22" value="alt" style="shape=umlFrame;dashed=1;pointerEvents=0;dropTarget=0;strokeColor=#B3B3B3;height=20;width=30;fontSize=25;" vertex="1" parent="1">
          <mxGeometry x="84" y="403" width="1588" height="567" as="geometry" />
        </mxCell>
        <mxCell id="4D6hWr7txT4YaTp5c9ir-23" value="[Email rỗng]" style="text;strokeColor=none;fillColor=none;align=center;verticalAlign=middle;whiteSpace=wrap;fontSize=25;" vertex="1" parent="4D6hWr7txT4YaTp5c9ir-22">
          <mxGeometry x="30" width="1558" height="20" as="geometry" />
        </mxCell>
        <mxCell id="4D6hWr7txT4YaTp5c9ir-24" value="[Email không tìm thấy]" style="shape=line;dashed=1;whiteSpace=wrap;verticalAlign=top;labelPosition=center;verticalLabelPosition=middle;align=center;strokeColor=#B3B3B3;fontSize=25;" vertex="1" parent="4D6hWr7txT4YaTp5c9ir-22">
          <mxGeometry y="98" width="1588" height="4" as="geometry" />
        </mxCell>
        <mxCell id="4D6hWr7txT4YaTp5c9ir-25" value="[Email hợp lệ]" style="shape=line;dashed=1;whiteSpace=wrap;verticalAlign=top;labelPosition=center;verticalLabelPosition=middle;align=center;strokeColor=#B3B3B3;fontSize=25;" vertex="1" parent="4D6hWr7txT4YaTp5c9ir-22">
          <mxGeometry y="191" width="1588" height="4" as="geometry" />
        </mxCell>
        <mxCell id="4D6hWr7txT4YaTp5c9ir-26" value="alt" style="shape=umlFrame;dashed=1;pointerEvents=0;dropTarget=0;strokeColor=#B3B3B3;height=20;width=30;fontSize=25;" vertex="1" parent="1">
          <mxGeometry x="84" y="1288" width="1588" height="852" as="geometry" />
        </mxCell>
        <mxCell id="4D6hWr7txT4YaTp5c9ir-27" value="[Thiếu thông tin]" style="text;strokeColor=none;fillColor=none;align=center;verticalAlign=middle;whiteSpace=wrap;fontSize=25;" vertex="1" parent="4D6hWr7txT4YaTp5c9ir-26">
          <mxGeometry x="30" width="1558" height="20" as="geometry" />
        </mxCell>
        <mxCell id="4D6hWr7txT4YaTp5c9ir-28" value="[Email không tìm thấy]" style="shape=line;dashed=1;whiteSpace=wrap;verticalAlign=top;labelPosition=center;verticalLabelPosition=middle;align=center;strokeColor=#B3B3B3;fontSize=25;" vertex="1" parent="4D6hWr7txT4YaTp5c9ir-26">
          <mxGeometry y="98" width="1588" height="4" as="geometry" />
        </mxCell>
        <mxCell id="4D6hWr7txT4YaTp5c9ir-29" value="[OTP không hợp lệ]" style="shape=line;dashed=1;whiteSpace=wrap;verticalAlign=top;labelPosition=center;verticalLabelPosition=middle;align=center;strokeColor=#B3B3B3;fontSize=25;" vertex="1" parent="4D6hWr7txT4YaTp5c9ir-26">
          <mxGeometry y="191" width="1588" height="4" as="geometry" />
        </mxCell>
        <mxCell id="4D6hWr7txT4YaTp5c9ir-30" value="[Thành công]" style="shape=line;dashed=1;whiteSpace=wrap;verticalAlign=top;labelPosition=center;verticalLabelPosition=middle;align=center;strokeColor=#B3B3B3;fontSize=25;" vertex="1" parent="4D6hWr7txT4YaTp5c9ir-26">
          <mxGeometry y="380" width="1588" height="4" as="geometry" />
        </mxCell>
        <mxCell id="4D6hWr7txT4YaTp5c9ir-31" value="Nhập email và&#xa; click &quot;Send OTP&quot;" style="verticalAlign=bottom;edgeStyle=elbowEdgeStyle;elbow=horizontal;curved=0;rounded=0;endArrow=block;fontSize=25;" edge="1" parent="1" source="4D6hWr7txT4YaTp5c9ir-1" target="4D6hWr7txT4YaTp5c9ir-3">
          <mxGeometry x="0.0083" relative="1" as="geometry">
            <Array as="points">
              <mxPoint x="270" y="172" />
            </Array>
            <mxPoint as="offset" />
          </mxGeometry>
        </mxCell>
        <mxCell id="4D6hWr7txT4YaTp5c9ir-32" value="POST /user/sendotp&#xa;{email}" style="verticalAlign=bottom;edgeStyle=elbowEdgeStyle;elbow=vertical;curved=0;rounded=0;endArrow=block;fontSize=25;" edge="1" parent="1" source="4D6hWr7txT4YaTp5c9ir-3" target="4D6hWr7txT4YaTp5c9ir-6">
          <mxGeometry x="0.0114" y="9" relative="1" as="geometry">
            <Array as="points">
              <mxPoint x="577" y="239" />
            </Array>
            <mxPoint as="offset" />
          </mxGeometry>
        </mxCell>
        <mxCell id="4D6hWr7txT4YaTp5c9ir-33" value="Gọi sendOTP()" style="verticalAlign=bottom;edgeStyle=elbowEdgeStyle;elbow=vertical;curved=0;rounded=0;endArrow=block;fontSize=25;" edge="1" parent="1" source="4D6hWr7txT4YaTp5c9ir-6" target="4D6hWr7txT4YaTp5c9ir-9">
          <mxGeometry x="0.028" y="17" relative="1" as="geometry">
            <Array as="points">
              <mxPoint x="826" y="287" />
            </Array>
            <mxPoint as="offset" />
          </mxGeometry>
        </mxCell>
        <mxCell id="4D6hWr7txT4YaTp5c9ir-34" value="Tìm user theo email" style="verticalAlign=bottom;edgeStyle=elbowEdgeStyle;elbow=vertical;curved=0;rounded=0;endArrow=block;fontSize=25;" edge="1" parent="1" source="4D6hWr7txT4YaTp5c9ir-9" target="4D6hWr7txT4YaTp5c9ir-12">
          <mxGeometry x="-0.0299" y="5" relative="1" as="geometry">
            <Array as="points">
              <mxPoint x="1093" y="335" />
            </Array>
            <mxPoint as="offset" />
          </mxGeometry>
        </mxCell>
        <mxCell id="4D6hWr7txT4YaTp5c9ir-35" value="Trả về dữ liệu user" style="verticalAlign=bottom;edgeStyle=elbowEdgeStyle;elbow=vertical;curved=0;rounded=0;dashed=1;dashPattern=2 3;endArrow=block;fontSize=25;" edge="1" parent="1" source="4D6hWr7txT4YaTp5c9ir-11" target="4D6hWr7txT4YaTp5c9ir-9">
          <mxGeometry x="-0.0213" y="-3" relative="1" as="geometry">
            <Array as="points">
              <mxPoint x="1096" y="383" />
            </Array>
            <mxPoint as="offset" />
          </mxGeometry>
        </mxCell>
        <mxCell id="4D6hWr7txT4YaTp5c9ir-36" value="Hiển thị &quot;Email is required&quot;" style="verticalAlign=bottom;edgeStyle=elbowEdgeStyle;elbow=vertical;curved=0;rounded=0;dashed=1;dashPattern=2 3;endArrow=block;fontSize=25;" edge="1" parent="1" source="4D6hWr7txT4YaTp5c9ir-9" target="4D6hWr7txT4YaTp5c9ir-3">
          <mxGeometry relative="1" as="geometry">
            <Array as="points">
              <mxPoint x="692" y="476" />
            </Array>
          </mxGeometry>
        </mxCell>
        <mxCell id="4D6hWr7txT4YaTp5c9ir-37" value="Hiển thị &quot;Email not found&quot;" style="verticalAlign=bottom;edgeStyle=elbowEdgeStyle;elbow=vertical;curved=0;rounded=0;dashed=1;dashPattern=2 3;endArrow=block;fontSize=25;" edge="1" parent="1" source="4D6hWr7txT4YaTp5c9ir-9" target="4D6hWr7txT4YaTp5c9ir-3">
          <mxGeometry x="0.0021" y="-3" relative="1" as="geometry">
            <Array as="points">
              <mxPoint x="692" y="569" />
            </Array>
            <mxPoint as="offset" />
          </mxGeometry>
        </mxCell>
        <mxCell id="4D6hWr7txT4YaTp5c9ir-38" value="Tạo &amp; lưu trữ OTP" style="verticalAlign=bottom;edgeStyle=elbowEdgeStyle;elbow=vertical;curved=0;rounded=0;endArrow=block;fontSize=25;" edge="1" parent="1" source="4D6hWr7txT4YaTp5c9ir-9" target="4D6hWr7txT4YaTp5c9ir-18">
          <mxGeometry x="-0.0084" y="2" relative="1" as="geometry">
            <Array as="points">
              <mxPoint x="1301" y="662" />
            </Array>
            <mxPoint as="offset" />
          </mxGeometry>
        </mxCell>
        <mxCell id="4D6hWr7txT4YaTp5c9ir-39" value="Gửi OTP tới email" style="verticalAlign=bottom;edgeStyle=elbowEdgeStyle;elbow=vertical;curved=0;rounded=0;endArrow=block;fontSize=25;" edge="1" parent="1" source="4D6hWr7txT4YaTp5c9ir-9" target="4D6hWr7txT4YaTp5c9ir-16">
          <mxGeometry x="-0.018" y="10" relative="1" as="geometry">
            <Array as="points">
              <mxPoint x="1193" y="710" />
            </Array>
            <mxPoint as="offset" />
          </mxGeometry>
        </mxCell>
        <mxCell id="4D6hWr7txT4YaTp5c9ir-40" value="Thành công" style="verticalAlign=bottom;edgeStyle=elbowEdgeStyle;elbow=vertical;curved=0;rounded=0;dashed=1;dashPattern=2 3;endArrow=block;fontSize=25;" edge="1" parent="1" source="4D6hWr7txT4YaTp5c9ir-15" target="4D6hWr7txT4YaTp5c9ir-9">
          <mxGeometry x="-0.0129" y="-8" relative="1" as="geometry">
            <Array as="points">
              <mxPoint x="1196" y="758" />
            </Array>
            <mxPoint as="offset" />
          </mxGeometry>
        </mxCell>
        <mxCell id="4D6hWr7txT4YaTp5c9ir-41" value="Lưu trữ thành công" style="verticalAlign=bottom;edgeStyle=elbowEdgeStyle;elbow=vertical;curved=0;rounded=0;dashed=1;dashPattern=2 3;endArrow=block;fontSize=25;" edge="1" parent="1" source="4D6hWr7txT4YaTp5c9ir-17" target="4D6hWr7txT4YaTp5c9ir-9">
          <mxGeometry x="0.0139" y="-6" relative="1" as="geometry">
            <Array as="points">
              <mxPoint x="1304" y="806" />
            </Array>
            <mxPoint as="offset" />
          </mxGeometry>
        </mxCell>
        <mxCell id="4D6hWr7txT4YaTp5c9ir-42" value="Thành công" style="verticalAlign=bottom;edgeStyle=elbowEdgeStyle;elbow=vertical;curved=0;rounded=0;dashed=1;dashPattern=2 3;endArrow=block;fontSize=25;" edge="1" parent="1" source="4D6hWr7txT4YaTp5c9ir-8" target="4D6hWr7txT4YaTp5c9ir-6">
          <mxGeometry relative="1" as="geometry">
            <Array as="points">
              <mxPoint x="829" y="854" />
            </Array>
          </mxGeometry>
        </mxCell>
        <mxCell id="4D6hWr7txT4YaTp5c9ir-43" value="Thành công" style="verticalAlign=bottom;edgeStyle=elbowEdgeStyle;elbow=vertical;curved=0;rounded=0;dashed=1;dashPattern=2 3;endArrow=block;fontSize=25;" edge="1" parent="1" source="4D6hWr7txT4YaTp5c9ir-6" target="4D6hWr7txT4YaTp5c9ir-3">
          <mxGeometry relative="1" as="geometry">
            <Array as="points">
              <mxPoint x="580" y="902" />
            </Array>
          </mxGeometry>
        </mxCell>
        <mxCell id="4D6hWr7txT4YaTp5c9ir-44" value="Hiển thị &#xa;&quot;OTP sent to your email&quot;" style="verticalAlign=bottom;edgeStyle=elbowEdgeStyle;elbow=vertical;curved=0;rounded=0;dashed=1;dashPattern=2 3;endArrow=block;fontSize=25;" edge="1" parent="1" source="4D6hWr7txT4YaTp5c9ir-3" target="4D6hWr7txT4YaTp5c9ir-1">
          <mxGeometry x="0.0058" y="-10" relative="1" as="geometry">
            <Array as="points">
              <mxPoint x="273" y="950" />
            </Array>
            <mxPoint as="offset" />
          </mxGeometry>
        </mxCell>
        <mxCell id="4D6hWr7txT4YaTp5c9ir-45" value="Nhập email, OTP &#xa;và mật khẩu mới" style="verticalAlign=bottom;edgeStyle=elbowEdgeStyle;elbow=vertical;curved=0;rounded=0;endArrow=block;fontSize=25;" edge="1" parent="1" source="4D6hWr7txT4YaTp5c9ir-1" target="4D6hWr7txT4YaTp5c9ir-4">
          <mxGeometry x="-0.0067" y="7" relative="1" as="geometry">
            <Array as="points">
              <mxPoint x="270" y="1057" />
            </Array>
            <mxPoint as="offset" />
          </mxGeometry>
        </mxCell>
        <mxCell id="4D6hWr7txT4YaTp5c9ir-46" value="POST &#xa;/user/forgotPassword&#xa;{email, &#xa;code, &#xa;newPassword}" style="verticalAlign=bottom;edgeStyle=elbowEdgeStyle;elbow=vertical;curved=0;rounded=0;endArrow=block;fontSize=25;" edge="1" parent="1" source="4D6hWr7txT4YaTp5c9ir-4" target="4D6hWr7txT4YaTp5c9ir-7">
          <mxGeometry x="0.0114" y="14" relative="1" as="geometry">
            <Array as="points">
              <mxPoint x="577" y="1124" />
            </Array>
            <mxPoint as="offset" />
          </mxGeometry>
        </mxCell>
        <mxCell id="4D6hWr7txT4YaTp5c9ir-47" value="Gọi &#xa;forgotPassword()" style="verticalAlign=bottom;edgeStyle=elbowEdgeStyle;elbow=horizontal;curved=0;rounded=0;endArrow=block;fontSize=25;" edge="1" parent="1" source="4D6hWr7txT4YaTp5c9ir-7" target="4D6hWr7txT4YaTp5c9ir-10">
          <mxGeometry x="0.028" y="12" relative="1" as="geometry">
            <Array as="points">
              <mxPoint x="826" y="1172" />
            </Array>
            <mxPoint as="offset" />
          </mxGeometry>
        </mxCell>
        <mxCell id="4D6hWr7txT4YaTp5c9ir-48" value="Tìm user theo email" style="verticalAlign=bottom;edgeStyle=elbowEdgeStyle;elbow=vertical;curved=0;rounded=0;endArrow=block;fontSize=25;" edge="1" parent="1" source="4D6hWr7txT4YaTp5c9ir-10" target="4D6hWr7txT4YaTp5c9ir-13">
          <mxGeometry relative="1" as="geometry">
            <Array as="points">
              <mxPoint x="1093" y="1220" />
            </Array>
          </mxGeometry>
        </mxCell>
        <mxCell id="4D6hWr7txT4YaTp5c9ir-49" value="Trả về dữ liệu user" style="verticalAlign=bottom;edgeStyle=elbowEdgeStyle;elbow=vertical;curved=0;rounded=0;dashed=1;dashPattern=2 3;endArrow=block;fontSize=25;" edge="1" parent="1" source="4D6hWr7txT4YaTp5c9ir-11" target="4D6hWr7txT4YaTp5c9ir-10">
          <mxGeometry relative="1" as="geometry">
            <Array as="points">
              <mxPoint x="1096" y="1268" />
            </Array>
          </mxGeometry>
        </mxCell>
        <mxCell id="4D6hWr7txT4YaTp5c9ir-50" value="Hiển thị &quot;Missing required fields&quot;" style="verticalAlign=bottom;edgeStyle=elbowEdgeStyle;elbow=vertical;curved=0;rounded=0;dashed=1;dashPattern=2 3;endArrow=block;fontSize=25;" edge="1" parent="1" source="4D6hWr7txT4YaTp5c9ir-10" target="4D6hWr7txT4YaTp5c9ir-4">
          <mxGeometry relative="1" as="geometry">
            <Array as="points">
              <mxPoint x="692" y="1361" />
            </Array>
          </mxGeometry>
        </mxCell>
        <mxCell id="4D6hWr7txT4YaTp5c9ir-51" value="Hiển thị &quot;User not found&quot;" style="verticalAlign=bottom;edgeStyle=elbowEdgeStyle;elbow=vertical;curved=0;rounded=0;dashed=1;dashPattern=2 3;endArrow=block;fontSize=25;" edge="1" parent="1" source="4D6hWr7txT4YaTp5c9ir-10" target="4D6hWr7txT4YaTp5c9ir-4">
          <mxGeometry relative="1" as="geometry">
            <Array as="points">
              <mxPoint x="692" y="1454" />
            </Array>
          </mxGeometry>
        </mxCell>
        <mxCell id="4D6hWr7txT4YaTp5c9ir-52" value="Xác thực OTP" style="verticalAlign=bottom;edgeStyle=elbowEdgeStyle;elbow=vertical;curved=0;rounded=0;endArrow=block;fontSize=25;" edge="1" parent="1" source="4D6hWr7txT4YaTp5c9ir-10">
          <mxGeometry relative="1" as="geometry">
            <Array as="points">
              <mxPoint x="1301" y="1547" />
            </Array>
            <mxPoint x="1652" y="1547" as="targetPoint" />
          </mxGeometry>
        </mxCell>
        <mxCell id="4D6hWr7txT4YaTp5c9ir-53" value="OTP không hợp lệ" style="verticalAlign=bottom;edgeStyle=elbowEdgeStyle;elbow=vertical;curved=0;rounded=0;dashed=1;dashPattern=2 3;endArrow=block;fontSize=25;" edge="1" parent="1" source="4D6hWr7txT4YaTp5c9ir-17" target="4D6hWr7txT4YaTp5c9ir-10">
          <mxGeometry relative="1" as="geometry">
            <Array as="points">
              <mxPoint x="1304" y="1595" />
            </Array>
          </mxGeometry>
        </mxCell>
        <mxCell id="4D6hWr7txT4YaTp5c9ir-54" value="Hiển thị &quot;Invalid OTP&quot;" style="verticalAlign=bottom;edgeStyle=elbowEdgeStyle;elbow=vertical;curved=0;rounded=0;dashed=1;dashPattern=2 3;endArrow=block;fontSize=25;" edge="1" parent="1" source="4D6hWr7txT4YaTp5c9ir-10" target="4D6hWr7txT4YaTp5c9ir-4">
          <mxGeometry relative="1" as="geometry">
            <Array as="points">
              <mxPoint x="692" y="1643" />
            </Array>
          </mxGeometry>
        </mxCell>
        <mxCell id="4D6hWr7txT4YaTp5c9ir-55" value="Xác thực OTP" style="verticalAlign=bottom;edgeStyle=elbowEdgeStyle;elbow=vertical;curved=0;rounded=0;endArrow=block;fontSize=25;" edge="1" parent="1" source="4D6hWr7txT4YaTp5c9ir-10">
          <mxGeometry relative="1" as="geometry">
            <Array as="points">
              <mxPoint x="1301" y="1736" />
            </Array>
            <mxPoint x="1652" y="1736" as="targetPoint" />
          </mxGeometry>
        </mxCell>
        <mxCell id="4D6hWr7txT4YaTp5c9ir-56" value="OTP hợp lệ" style="verticalAlign=bottom;edgeStyle=elbowEdgeStyle;elbow=vertical;curved=0;rounded=0;dashed=1;dashPattern=2 3;endArrow=block;fontSize=25;" edge="1" parent="1" source="4D6hWr7txT4YaTp5c9ir-17" target="4D6hWr7txT4YaTp5c9ir-10">
          <mxGeometry relative="1" as="geometry">
            <Array as="points">
              <mxPoint x="1304" y="1784" />
            </Array>
          </mxGeometry>
        </mxCell>
        <mxCell id="4D6hWr7txT4YaTp5c9ir-57" value="Xóa OTP" style="verticalAlign=bottom;edgeStyle=elbowEdgeStyle;elbow=vertical;curved=0;rounded=0;endArrow=block;fontSize=25;" edge="1" parent="1" source="4D6hWr7txT4YaTp5c9ir-10">
          <mxGeometry relative="1" as="geometry">
            <Array as="points">
              <mxPoint x="1301" y="1832" />
            </Array>
            <mxPoint x="1652" y="1832" as="targetPoint" />
          </mxGeometry>
        </mxCell>
        <mxCell id="4D6hWr7txT4YaTp5c9ir-58" value="Đã xóa" style="verticalAlign=bottom;edgeStyle=elbowEdgeStyle;elbow=vertical;curved=0;rounded=0;dashed=1;dashPattern=2 3;endArrow=block;fontSize=25;" edge="1" parent="1" source="4D6hWr7txT4YaTp5c9ir-17" target="4D6hWr7txT4YaTp5c9ir-10">
          <mxGeometry relative="1" as="geometry">
            <Array as="points">
              <mxPoint x="1304" y="1880" />
            </Array>
          </mxGeometry>
        </mxCell>
        <mxCell id="4D6hWr7txT4YaTp5c9ir-59" value="Cập nhật mật khẩu user (hashed)" style="verticalAlign=bottom;edgeStyle=elbowEdgeStyle;elbow=vertical;curved=0;rounded=0;endArrow=block;fontSize=25;" edge="1" parent="1" source="4D6hWr7txT4YaTp5c9ir-10" target="4D6hWr7txT4YaTp5c9ir-14">
          <mxGeometry relative="1" as="geometry">
            <Array as="points">
              <mxPoint x="1093" y="1928" />
            </Array>
          </mxGeometry>
        </mxCell>
        <mxCell id="4D6hWr7txT4YaTp5c9ir-60" value="Thành công" style="verticalAlign=bottom;edgeStyle=elbowEdgeStyle;elbow=vertical;curved=0;rounded=0;dashed=1;dashPattern=2 3;endArrow=block;fontSize=25;" edge="1" parent="1" source="4D6hWr7txT4YaTp5c9ir-11" target="4D6hWr7txT4YaTp5c9ir-10">
          <mxGeometry relative="1" as="geometry">
            <Array as="points">
              <mxPoint x="1096" y="1976" />
            </Array>
          </mxGeometry>
        </mxCell>
        <mxCell id="4D6hWr7txT4YaTp5c9ir-61" value="Thành công" style="verticalAlign=bottom;edgeStyle=elbowEdgeStyle;elbow=vertical;curved=0;rounded=0;dashed=1;dashPattern=2 3;endArrow=block;fontSize=25;" edge="1" parent="1" source="4D6hWr7txT4YaTp5c9ir-8" target="4D6hWr7txT4YaTp5c9ir-7">
          <mxGeometry relative="1" as="geometry">
            <Array as="points">
              <mxPoint x="829" y="2024" />
            </Array>
          </mxGeometry>
        </mxCell>
        <mxCell id="4D6hWr7txT4YaTp5c9ir-62" value="Thành công" style="verticalAlign=bottom;edgeStyle=elbowEdgeStyle;elbow=vertical;curved=0;rounded=0;dashed=1;dashPattern=2 3;endArrow=block;fontSize=25;" edge="1" parent="1" source="4D6hWr7txT4YaTp5c9ir-7" target="4D6hWr7txT4YaTp5c9ir-4">
          <mxGeometry relative="1" as="geometry">
            <Array as="points">
              <mxPoint x="580" y="2072" />
            </Array>
          </mxGeometry>
        </mxCell>
        <mxCell id="4D6hWr7txT4YaTp5c9ir-63" value="Hiển thị &quot;Password reset successful&quot;" style="verticalAlign=bottom;edgeStyle=elbowEdgeStyle;elbow=vertical;curved=0;rounded=0;dashed=1;dashPattern=2 3;endArrow=block;fontSize=25;" edge="1" parent="1" source="4D6hWr7txT4YaTp5c9ir-4" target="4D6hWr7txT4YaTp5c9ir-1">
          <mxGeometry relative="1" as="geometry">
            <Array as="points">
              <mxPoint x="273" y="2120" />
            </Array>
          </mxGeometry>
        </mxCell>
      </root>
    </mxGraphModel>
  </diagram>
</mxfile>
